<?xml version="1.0" encoding="utf-8"?>
<!-- Generator: Adobe Illustrator 24.3.0, SVG Export Plug-In . SVG Version: 6.00 Build 0)  -->
<svg version="1.1"
	 id="Ebene_1" xmlns:cc="http://creativecommons.org/ns#" xmlns:dc="http://purl.org/dc/elements/1.1/" xmlns:inkscape="http://www.inkscape.org/namespaces/inkscape" xmlns:rdf="http://www.w3.org/1999/02/22-rdf-syntax-ns#" xmlns:sodipodi="http://sodipodi.sourceforge.net/DTD/sodipodi-0.dtd" xmlns:svg="http://www.w3.org/2000/svg"
	 xmlns="http://www.w3.org/2000/svg" xmlns:xlink="http://www.w3.org/1999/xlink" x="0px" y="0px" viewBox="0 0 100 100"
	 style="enable-background:new 0 0 100 100;" xml:space="preserve">
<style type="text/css">
	.st0{fill:#333333;}
	.st1{fill:#CB0000;}
</style>
<path class="st0" d="M12.1,15C8.2,15,5,18.2,5,22.1v55.8c0,3.9,3.2,7.1,7.1,7.1h55.8c3.9,0,7.1-3.2,7.1-7.1V60.3l19.1-19.1
	c1.2-1.2,1.2-3.1,0-4.2c0,0,0,0,0,0l-9.1-9.1c-0.6-0.6-1.3-0.9-2.2-0.9c-0.8,0-1.5,0.3-2.1,0.9L75,33.7V22.1c0-3.9-3.2-7.1-7.1-7.1
	c-0.1,0-0.2,0-0.3,0c-1.7,0.1-2.9,1.5-2.8,3.2c0.1,1.7,1.5,2.9,3.2,2.8h0c0.7,0,1.1,0.4,1.1,1.1v17.6L51.9,56.9
	C51.3,57.4,51,58.2,51,59v9c0,1.7,1.3,3,3,3h9c0.8,0,1.6-0.3,2.1-0.9l3.9-3.9v11.6c0,0.7-0.4,1.1-1.1,1.1H12.1
	c-0.7,0-1.1-0.4-1.1-1.1V22.1c0-0.7,0.4-1.1,1.1-1.1H58c1.7,0,3-1.3,3-3c0-1.7-1.3-3-3-3c0,0-0.1,0-0.1,0H12.1z M82.9,34.2l4.8,4.8
	l-3.2,3.2l-4.8-4.8L82.9,34.2z M75.5,41.7l4.8,4.8L61.8,65H57v-4.8L75.5,41.7z"/>
<path class="st1" d="M19.7,28.2c-1.7,0.1-2.9,1.5-2.8,3.2s1.5,2.9,3.2,2.8h40c1.7,0,3-1.3,3-3c0-1.7-1.3-3-3-3c0,0-0.1,0-0.1,0H20
	C19.9,28.2,19.8,28.2,19.7,28.2z"/>
<path class="st1" d="M19.7,41.5c-1.7,0.1-2.9,1.5-2.8,3.2s1.5,2.9,3.2,2.8l0,0h35c1.7,0,3-1.3,3-3c0-1.7-1.3-3-3-3c0,0-0.1,0-0.1,0
	H20C19.9,41.5,19.8,41.5,19.7,41.5z"/>
<path class="st1" d="M19.7,53.4c-1.7,0.1-2.9,1.5-2.8,3.2s1.5,2.9,3.2,2.8h24c1.7,0,3-1.3,3-3c0-1.7-1.3-3-3-3c0,0-0.1,0-0.1,0H20
	C19.9,53.4,19.8,53.4,19.7,53.4z"/>
<path class="st1" d="M19.7,65.2c-1.7,0.1-2.9,1.5-2.8,3.2s1.5,2.9,3.2,2.8l0,0h24c1.7,0,3-1.3,3-3c0-1.7-1.3-3-3-3c0,0-0.1,0-0.1,0
	H20C19.9,65.2,19.8,65.2,19.7,65.2z"/>
</svg>
