<?xml version="1.0" encoding="utf-8"?>
<!-- Generator: Adobe Illustrator 24.3.0, SVG Export Plug-In . SVG Version: 6.00 Build 0)  -->
<svg version="1.1" id="Ebene_1" xmlns="http://www.w3.org/2000/svg" xmlns:xlink="http://www.w3.org/1999/xlink" x="0px" y="0px"
	 viewBox="0 0 100 100" style="enable-background:new 0 0 100 100;" xml:space="preserve">
<style type="text/css">
	.st0{fill:#333333;}
	.st1{fill:#CB0000;}
</style>
<g>
	<path class="st0" d="M64.1,30.8c0-4.1-3.3-7.3-7.3-7.3H12c-4.1,0-7.3,3.3-7.3,7.3v38.4c0,4.1,3.3,7.3,7.3,7.3h44.7
		c4.1,0,7.3-3.3,7.3-7.3V30.8z M60.9,69.2c0,2.3-1.9,4.2-4.2,4.2H12c-2.3,0-4.2-1.9-4.2-4.2V30.8c0-2.3,1.9-4.2,4.2-4.2h44.7
		c2.3,0,4.2,1.9,4.2,4.2V69.2z"/>
	<path class="st0" d="M92.3,31.7c-1.1-0.8-2.3-0.9-3.6-0.6l-20,7v26.2l20.3,6.9c0.5,0.2,0.9,0.2,1.2,0.2c0.8,0,1.2-0.3,2-0.8
		c1.1-0.8,1.4-2,1.4-3.3V35.2C93.8,33.8,93.4,32.5,92.3,31.7z M90.6,67.3c0,0.5,0.2,0.8,0,0.8c-0.2,0.2-0.3,0.3-0.8,0.2l-18-6.2
		V40.3l18.3-6.2c0.5-0.2,0.3,0,0.5,0.2s0,0.3,0,0.8V67.3z"/>
	<path class="st1" d="M46.9,48.6l-18-10.3c-0.5-0.3-1.1-0.3-1.6,0s-0.8,0.8-0.8,1.4v20.6c0,0.6,0.3,1.1,0.8,1.4
		c0.3,0.2,0.5,0.2,0.8,0.2s0.5,0,0.8-0.2l18-10.3c0.5-0.3,0.8-0.8,0.8-1.4S47.3,48.9,46.9,48.6z M29.7,57.7V42.3L43,50L29.7,57.7z"
		/>
</g>
</svg>
