<?xml version="1.0" encoding="utf-8"?>
<!-- Generator: Adobe Illustrator 26.0.1, SVG Export Plug-In . SVG Version: 6.00 Build 0)  -->
<svg version="1.1" id="Ebene_1" xmlns="http://www.w3.org/2000/svg" xmlns:xlink="http://www.w3.org/1999/xlink" x="0px" y="0px"
	 viewBox="0 0 63.8 49.5" style="enable-background:new 0 0 63.8 49.5;" xml:space="preserve">
<style type="text/css">
	.st0{fill:#333333;}
</style>
<path class="st0" d="M26.8,36v-8.3h7.1c1.6,0,1.7-5.6,0.1-5.6h-7.1l0-8.1c0-1.9-4.9-1.8-4.9,0.1v8.1h-7.1c-1.6,0-1.7,5.6,0,5.6H22
	l0,8.3C21.9,37.7,26.8,37.6,26.8,36z M42,4.9c2.6,0,4.4,2,4.4,5v30c0,3.5-1.8,5-4.4,5H6.7c-2.6,0-4.4-2-4.4-5v-30c0-3,1.3-5,4.4-5
	H42z M50.8,19.1l11-9.2v30l-11-9V19.1z"/>
</svg>
