<svg height='100px' width='100px'  fill="#333333" xmlns="http://www.w3.org/2000/svg" xmlns:xlink="http://www.w3.org/1999/xlink" version="1.1" x="0px" y="0px" viewBox="0 0 100.0 100"><path d="M555,377 l0,166 l162,0 c37,0,39,113,2,113 l-162,0 l-1,162 c0,37,-111,35,-111,-1 l0,-162 l-162,0 c-37,0,-38,-112,-1,-112 l164,0 l-1,-165 c0,-34,110,-33,110,-1 Z M900,1000 c60,0,100,-40,100,-100 l0,-600 c0,-70,-40,-100,-100,-100 l-800,0 c-60,0,-100,40,-100,100 l0,600 c0,60,30,100,100,100 Z M1100,715 l250,184 l0,-600 l-250,180 Z M1100,715 " fill="#333333" stroke="none" stroke-dasharray="none" stroke-linecap="inherit" stroke-linejoin="inherit" stroke-width="1" transform="matrix(0.05,0.0,0.0,-0.05,20.0,80.0)"></path></svg>