<?xml version="1.0" encoding="utf-8"?>
<!-- Generator: Adobe Illustrator 25.0.0, SVG Export Plug-In . SVG Version: 6.00 Build 0)  -->
<svg version="1.1" id="_x3C_Layer_x3E_" xmlns="http://www.w3.org/2000/svg" xmlns:xlink="http://www.w3.org/1999/xlink" x="0px"
	 y="0px" viewBox="0 0 1755.6 1756.1" style="enable-background:new 0 0 1755.6 1756.1;" xml:space="preserve">
<style type="text/css">
	.st0{fill:#727272;}
	.st1{fill:#333333;}
	.st2{fill:#0C0C0C;}
</style>
<rect class="st0" width="1755.6" height="1756.1"/>
<g>
	<g>
		<g>
			<path class="st1" d="M1187.4,1114.9c0,72.3-58.6,130.9-131,130.9H632.2c-72.3,0-131-58.6-131-130.9V791.2
				c0-72.3,58.6-130.9,131-130.9h424.3c72.3,0,131,58.6,131,130.9V1114.9z"/>
			<path class="st2" d="M1056.5,1250.2H632.2c-74.6,0-135.4-60.7-135.4-135.3V791.2c0-74.6,60.7-135.3,135.4-135.3h424.3
				c74.6,0,135.4,60.7,135.4,135.3v323.7C1191.8,1189.5,1131.1,1250.2,1056.5,1250.2z M632.2,664.7c-69.8,0-126.6,56.8-126.6,126.5
				v323.7c0,69.8,56.8,126.5,126.6,126.5h424.3c69.8,0,126.6-56.8,126.6-126.5V791.2c0-69.8-56.8-126.5-126.6-126.5H632.2z"/>
		</g>
		<g>
			<rect x="632.2" y="1245.8" class="st1" width="424.3" height="67.6"/>
			<path class="st2" d="M1060.9,1317.8H627.8v-76.4h433.1V1317.8z M636.6,1309h415.5v-58.8H636.6V1309z"/>
		</g>
		<g>
			<path class="st1" d="M1011.3,660.3V541.1c0-8.3-6.7-15-15-15H692.3c-8.3,0-15,6.7-15,15v119.2H1011.3z"/>
			<path class="st2" d="M1015.7,664.7H672.9V541.1c0-10.7,8.7-19.3,19.3-19.3h304.1c10.7,0,19.3,8.7,19.3,19.3V664.7z M681.7,655.9
				H1007V541.1c0-5.8-4.7-10.6-10.6-10.6H692.3c-5.8,0-10.6,4.7-10.6,10.6V655.9z"/>
		</g>
		<g>
			<g>
				<path class="st1" d="M1240.6,1350c-7.4-30.5-20.1-36.6-42.3-36.6c-19.1,0-689,0-708,0c-22.2,0-34.9,6-42.3,36.6
					c-7.4,30.5-77.5,406.1-77.5,406.1h947.6C1318.2,1756.1,1248,1380.5,1240.6,1350z"/>
				<path class="st2" d="M1323.5,1760.5H365.2l1-5.2c2.9-15.3,70.3-376.1,77.6-406.4c8.1-33.4,23.2-39.9,46.5-39.9h708
					c23.4,0,38.5,6.5,46.6,39.9c7.3,30.3,74.7,391,77.6,406.4L1323.5,1760.5z M375.8,1751.7h937.1c-8.5-45.5-69.7-372.6-76.5-400.7
					c-6.8-28.2-17.7-33.2-38-33.2h-708c-20.3,0-31.2,5-38,33.2C445.5,1379.1,384.3,1706.2,375.8,1751.7z"/>
			</g>
			<g>
				<path class="st1" d="M1318.2,1756.1c0,0-75.3-396.5-77.3-405c-2-8.5,19.5-18,53,10.3c33.5,28.3,160,149,254.2,304.5
					c33,54.4,36.3,90.2,36.3,90.2H1318.2z"/>
				<path class="st2" d="M1589.2,1760.5h-274.6l-0.7-3.6c-0.8-4-75.3-396.5-77.2-404.9c-0.7-2.8,0-5.8,2-8.2c3-3.7,8.5-5.9,15.2-5.9
					c12.4,0,27.7,7.1,42.9,20c39.8,33.6,163.4,154.1,255.2,305.6c33.1,54.6,36.7,90.6,36.9,92.1L1589.2,1760.5z M1321.8,1751.7
					h257.4c-2.1-11.4-9.7-42.1-34.9-83.6c-91.2-150.4-213.8-270-253.3-303.4c-18.5-15.6-31.3-17.9-37.3-17.9c-4.6,0-7.4,1.4-8.3,2.5
					C1247.1,1358.2,1313.8,1709.6,1321.8,1751.7z"/>
			</g>
			<g>
				<path class="st1" d="M370.5,1756.1c0,0,75.3-396.5,77.3-405c2-8.5-19.5-18-53,10.3c-33.5,28.3-160,149-254.2,304.5
					c-33,54.4-36.3,90.2-36.3,90.2H370.5z"/>
				<path class="st2" d="M374.2,1760.5H99.5l0.4-4.8c0.1-1.5,3.8-37.5,36.9-92.1c91.8-151.5,215.3-271.9,255.1-305.6
					c15.3-12.9,30.5-20,42.9-20c6.7,0,12.2,2.1,15.2,5.9c1.9,2.4,2.6,5.3,2,8.2c-1.9,8.4-76.5,400.9-77.2,404.9L374.2,1760.5z
					 M109.5,1751.7h257.4c8-42.1,74.7-393.4,76.6-401.6c-1.2-1.9-4-3.3-8.6-3.3c-6,0-18.8,2.3-37.3,17.9
					c-39.5,33.4-162.1,153-253.3,303.4C119.2,1709.6,111.6,1740.3,109.5,1751.7z"/>
			</g>
		</g>
	</g>
</g>
</svg>
