<?xml version="1.0" encoding="utf-8"?>
<!-- Generator: Adobe Illustrator 26.0.1, SVG Export Plug-In . SVG Version: 6.00 Build 0)  -->
<svg version="1.1" xmlns="http://www.w3.org/2000/svg" xmlns:xlink="http://www.w3.org/1999/xlink" x="0px" y="0px"
	 viewBox="0 0 82.3 42.8" style="enable-background:new 0 0 82.3 42.8;" xml:space="preserve">
<style type="text/css">
	.st0{fill:#333333;}
	.st1{display:none;fill:#FFFFFF;}
	.st2{fill:#FFFFFF;}
	.st3{fill:#333333;stroke:#FFFFFF;stroke-width:0.5;stroke-miterlimit:10;}
	.st4{fill:#333333;stroke:#FFFFFF;stroke-miterlimit:10;}
</style>
<g id="Ebene_2">
	<rect x="59.3" y="62.9" class="st0" width="1.1" height="10.5"/>
	<path class="st0" d="M44.4,62.8c0.3-2-0.5-3.9-2-5.1l-0.1-0.1l0.6-3.5l-4.5-0.8l-0.6,3.5l-0.1,0c-1.9,0.6-3.3,2.2-3.6,4.1
		c-0.3,1.8,0.4,3.7,1.8,4.9l0.4-2.3c-0.4-0.7-0.5-1.5-0.4-2.3c0.3-1.7,1.7-2.9,3.4-2.9c0.2,0,0.4,0,0.6,0c0.9,0.2,1.7,0.7,2.3,1.4
		c0.5,0.8,0.8,1.7,0.6,2.6c-0.2,1-0.8,1.9-1.7,2.4L40.6,67C42.6,66.5,44,64.9,44.4,62.8z"/>
	<path class="st0" d="M48,33.2c0,0-0.8,0-1.7,0.2c-1.2,0.3-2,0.8-2.4,1.6c-1.1,2-3.7,6.2-3.8,6.4c-0.1,0.2-1.2,2.7-1.5,4.3
		c-0.3,1.5-1.2,6.2-1.4,7.2l7.1,1.2l2.1-10.6h0.4c0.9-4.5,1.7-8.8,2-10.3H48z"/>
	<rect x="46" y="58.4" class="st0" width="29.1" height="4.1"/>
	<rect x="60.8" y="62.9" class="st0" width="1.1" height="10.5"/>
	<path class="st0" d="M87.1,61.1c-0.3-2-1.7-3.5-3.6-4.1l-0.1,0l-0.6-3.5l-4.5,0.8l0.6,3.5l-0.1,0.1c-1.6,1.2-2.4,3.1-2,5.1
		c0.3,2,1.8,3.6,3.8,4.2L80.2,65c-0.9-0.5-1.5-1.4-1.7-2.4c-0.2-0.9,0.1-1.8,0.6-2.6c0.5-0.8,1.3-1.3,2.3-1.4c0.2,0,0.4,0,0.6,0
		c1.7,0,3.2,1.2,3.4,2.9c0.1,0.8,0,1.6-0.4,2.3l0.4,2.3C86.8,64.7,87.5,62.9,87.1,61.1z"/>
	<path class="st0" d="M74.7,43.4l2.1,10.6l7.1-1.2c-0.2-1-1.1-5.7-1.4-7.2c-0.3-1.6-1.4-4.1-1.5-4.3c-0.1-0.2-2.7-4.4-3.8-6.4
		c-1.1-2-4.1-1.8-4.1-1.8h-0.9c0.3,1.4,1.1,5.8,2,10.3H74.7z"/>
	<path class="st0" d="M56.1,11.2h9.5V7.7c0-0.1-0.1-0.2-0.2-0.2h-9.1c-0.1,0-0.2,0.1-0.2,0.2V11.2z"/>
	<path class="st0" d="M66.7,29c0,0-3.3,0.4-5.8,0.4S55,29,55,29c-0.2,0-0.4-0.1-0.6-0.1v2.6h12.8v-2.6C67,29,66.8,29,66.7,29z"/>
	<path class="st0" d="M71,24.3V16c0-2.4-2-4.4-4.4-4.4H55c-2.4,0-4.4,2-4.4,4.4v8.3c0,2.3,1.7,4,4.4,4.4c0,0,3.2,0.4,5.8,0.4
		c2.5,0,5.7-0.4,5.8-0.4C69.3,28.3,71,26.6,71,24.3z"/>
	<polygon class="st0" points="75.7,83.3 75.1,62.9 62.2,62.9 62.2,83.3 	"/>
	<polygon class="st0" points="76,91.2 75.8,84.8 62.2,84.8 62.2,91.2 	"/>
	<polygon class="st0" points="46,62.9 45.4,83.3 58.9,83.3 58.9,62.9 	"/>
	<polygon class="st0" points="45.4,84.8 45.2,91.2 58.9,91.2 58.9,84.8 	"/>
	<path class="st0" d="M76.2,56c0-0.6-4-21.8-4.4-23.1c-0.2-0.9-0.8-0.9-0.9-0.9l0,0l-20.5,0c-0.2,0-0.7,0.1-0.9,0.9
		C49,34.2,45,55.4,45,56v1.9C45,58,45,58,45.2,58H76c0.1,0,0.2-0.1,0.2-0.2V56z"/>
	<path class="st1" d="M48.3,29.3c0,0,1.1-0.3,2.5,0s2,0.5,2.5,1c0.5,0.4,2.5,3.4,2.5,3.4l2.5,4.7l2.2,5c0,0,0.6,3.2,0.6,3.5
		c0,0.3,0.8,4.5,0.8,4.5v1.1h1.1l-0.4-4.2l-0.6-3.9c0,0-1-3.3-1.8-4.9s-3.6-6.3-3.6-6.3s-1.2-2-2.6-3.2c-1.3-1.2-3.3-1.4-3.3-1.4
		h-2.5V29.3z"/>
	<polyline class="st2" points="63.1,52.5 63.1,54.6 63.1,56.8 61.3,56.8 62,52.5 	"/>
</g>
<g id="Ebene_1">
	<rect x="24.2" y="64.4" class="st0" width="1.3" height="12.1"/>
	<path class="st0" d="M7.2,64.4c0.4-2.2-0.5-4.5-2.3-5.8l-0.1-0.1l0.7-4l-5.1-0.9l-0.7,4l-0.1,0c-2.2,0.7-3.8,2.5-4.1,4.7
		c-0.4,2.1,0.4,4.2,2,5.6l0.4-2.6c-0.4-0.8-0.6-1.7-0.5-2.6c0.3-1.9,2-3.3,3.9-3.3c0.2,0,0.5,0,0.7,0.1c1,0.2,2,0.8,2.6,1.6
		c0.6,0.9,0.9,1.9,0.7,3c-0.2,1.2-0.9,2.2-1.9,2.8l-0.4,2.3C5.1,68.5,6.8,66.7,7.2,64.4z"/>
	<path class="st0" d="M11.4,30.5c0,0-0.9,0-1.9,0.2c-1.3,0.3-2.3,0.9-2.8,1.9c-1.3,2.3-4.2,7.1-4.3,7.3C2.3,40,1,42.9,0.6,44.7
		c-0.3,1.7-1.3,7.1-1.5,8.2l8.1,1.4l2.4-12.1h0.5c1-5.1,1.9-10.1,2.3-11.7H11.4z"/>
	<rect x="9.1" y="59.3" class="st0" width="33.2" height="4.7"/>
	<rect x="25.9" y="64.4" class="st0" width="1.3" height="12.1"/>
	<path class="st3" d="M56.1,62.3c-0.4-2.2-2-4-4.1-4.7l-0.1,0l-0.7-4L46,54.5l0.7,4l-0.1,0.1c-1.8,1.4-2.7,3.6-2.3,5.8
		c0.4,2.3,2.1,4.1,4.3,4.8l-0.4-2.3c-1-0.6-1.7-1.6-1.9-2.8c-0.2-1.1,0.1-2.1,0.7-3c0.6-0.9,1.5-1.4,2.6-1.6c0.2,0,0.4-0.1,0.7-0.1
		c2,0,3.6,1.4,3.9,3.3c0.2,0.9,0,1.8-0.5,2.6l0.4,2.6C55.7,66.5,56.4,64.4,56.1,62.3z"/>
	<path class="st4" d="M41.8,42.2l2.4,12.1l8.1-1.4c-0.2-1.1-1.2-6.5-1.5-8.2c-0.3-1.8-1.7-4.7-1.7-4.9c-0.2-0.3-3-5-4.3-7.3
		c-1.3-2.2-4.6-2.1-4.7-2.1h-1c0.4,1.7,1.3,6.6,2.3,11.7H41.8z"/>
	<path class="st0" d="M20.6,5.4h10.8v-4c0-0.1-0.1-0.2-0.2-0.2H20.8c-0.1,0-0.2,0.1-0.2,0.2V5.4z"/>
	<path class="st0" d="M32.6,25.7c0,0-3.7,0.4-6.7,0.4c-2.9,0-6.6-0.4-6.7-0.4c-0.2,0-0.4-0.1-0.7-0.1v3h14.6v-3
		C33.1,25.6,32.9,25.7,32.6,25.7z"/>
	<path class="st0" d="M37.6,20.3v-9.4c0-2.8-2.2-5-5-5H19.4c-2.8,0-5,2.2-5,5v9.4c0,2.7,2,4.6,5,5c0,0,3.7,0.4,6.6,0.4
		c2.9,0,6.6-0.4,6.6-0.4C35.6,24.9,37.6,22.9,37.6,20.3z"/>
	<polygon class="st0" points="43,87.7 42.3,64.4 27.6,64.4 27.6,87.7 	"/>
	<polygon class="st0" points="43.3,96.8 43.1,89.4 27.6,89.4 27.6,96.8 	"/>
	<polygon class="st0" points="9.1,64.4 8.4,87.7 23.8,87.7 23.8,64.4 	"/>
	<polygon class="st0" points="8.3,89.4 8.1,96.8 23.8,96.8 23.8,89.4 	"/>
	<path class="st0" d="M43.5,56.5c0-0.7-4.6-24.9-5-26.4c-0.3-1-0.9-1.1-1.1-1.1l0,0L14,29c-0.2,0-0.8,0.1-1.1,1.1
		c-0.4,1.5-5,25.8-5,26.4v2.2c0,0.1,0.1,0.2,0.2,0.2h35.2c0.1,0,0.2-0.1,0.2-0.2V56.5z"/>
</g>
</svg>
