<?xml version="1.0" encoding="utf-8"?>
<!-- Generator: Adobe Illustrator 24.3.0, SVG Export Plug-In . SVG Version: 6.00 Build 0)  -->
<svg version="1.1" id="Ebene_1" xmlns="http://www.w3.org/2000/svg" xmlns:xlink="http://www.w3.org/1999/xlink" x="0px" y="0px"
	 viewBox="0 0 100 100" style="enable-background:new 0 0 100 100;" xml:space="preserve">
<style type="text/css">
	.st0{fill:#CB0000;}
	.st1{fill:#333333;}
</style>
<g>
	<path class="st0" d="M27.9,60.1l6.1,1.1c0,0,0.1,0,0.1,0c0.2,0,0.4-0.1,0.4-0.4c0-0.2-0.1-0.5-0.3-0.5L28,59.3
		c-0.2,0-0.5,0.1-0.5,0.3C27.5,59.9,27.7,60.1,27.9,60.1z"/>
	<path class="st0" d="M68.5,61.3C68.5,61.3,68.6,61.3,68.5,61.3l6.1-1.1c0.2,0,0.4-0.3,0.3-0.5c0-0.2-0.3-0.4-0.5-0.3l-6.1,1.1
		c-0.2,0-0.4,0.3-0.3,0.5C68.1,61.1,68.3,61.3,68.5,61.3z"/>
	<path class="st1" d="M67.4,77.3h0.4V72h1.1v-1.7c0.2,0,0.5,0,0.7,0l0.3,2.1c-0.3,0.3-0.5,0.5-0.7,0.8c-0.9,1.3-1.3,3-1.1,4.4
		c0.4,2.5,1.7,4.3,3,4.5l0.1,0c0.5,0,0.7-0.2,0.9-0.4c0.3-0.5,0.2-1.2-0.4-2.6c-0.4-0.9-0.5-2.5,0.1-3.6c0.4-0.8,1.2-1.3,2.3-1.5
		c1.1-0.2,2,0.1,2.7,0.8c0.8,0.9,1.2,2.4,1.1,3.4c-0.1,1.4,0,2.1,0.3,2.5c0.3,0.3,0.7,0.4,1.1,0.2l0,0c1.2-0.6,1.8-2.7,1.4-5.2
		c-0.2-1.5-1.4-3.6-3.5-4.5l-0.4-2.2c0.8-0.6,1-1.1,1.1-1.2l0-0.1l-1.8-10l0-0.1c0-0.1-3.1-6-4.4-8.7c-1.7-3.4-3.4-5-5.4-5h-1.9
		c-0.3-1.5-0.6-2.4-2.9-2.4h-2.4v-1.7c2.3-0.1,4.1-1.9,4.1-4.2V23.6c0-2.3-1.9-4.2-4.2-4.2h-1.5v-2.8c0-0.8-0.7-1.5-1.5-1.5h-9
		c-0.8,0-1.5,0.7-1.5,1.5v2.8h-1.5c-2.3,0-4.2,1.9-4.2,4.2v11.7c0,2.3,1.8,4.1,4.1,4.2v1.7h-2.4c-2.3,0-2.6,0.9-2.9,2.4h-1.8
		c-2,0-3.8,1.6-5.4,5c-1.3,2.7-4.4,8.7-4.4,8.7l0,0.1l-1.8,10l0,0.1c0,0.1,0.3,0.6,1.1,1.2l-0.4,2.2c-2.1,0.9-3.3,3-3.5,4.5
		c-0.4,2.5,0.2,4.6,1.4,5.2l0,0c0.2,0.1,0.3,0.1,0.5,0.1l0,0c0.3,0,0.5-0.1,0.7-0.3c0.4-0.4,0.5-1.1,0.3-2.5c-0.1-1,0.2-2.5,1.1-3.4
		c0.5-0.6,1.2-0.9,2-0.9c0.2,0,0.4,0,0.7,0.1c1.1,0.2,1.8,0.7,2.3,1.5c0.6,1.1,0.5,2.7,0.1,3.6c-0.6,1.4-0.8,2.1-0.4,2.6
		c0.1,0.2,0.4,0.4,0.9,0.4l0.1,0c1.3-0.1,2.6-2,3-4.5c0.3-1.4-0.2-3.1-1.1-4.4c-0.2-0.3-0.4-0.5-0.7-0.8l0.3-2.1c0.2,0,0.4,0,0.7,0
		V72h1.1v5.2h0.4 M66.2,44.5c1.6,0,3.2,1.5,4.7,4.6c1.3,2.6,4.1,8.1,4.4,8.7l1.6,9.1c-2.7-0.7-6.2,0.2-8.1,1.4
		c-1.2-6.6-3.7-21-4.2-23.1c0-0.2-0.1-0.4-0.1-0.6C64.5,44.5,66.2,44.5,66.2,44.5z M46.1,16.5c0-0.4,0.3-0.7,0.7-0.7h9
		c0.4,0,0.7,0.3,0.7,0.7v2.8H46.1V16.5z M40.3,35.3V23.6c0-1.8,1.5-3.3,3.3-3.3h1.5h12.1h1.5c1.8,0,3.3,1.5,3.3,3.3v11.7
		c0,1.8-1.5,3.3-3.3,3.3H43.7C41.8,38.6,40.3,37.1,40.3,35.3z M44.4,39.5h13.7v1.7H44.4V39.5z M41.1,42.1h2.4h15.4h2.4
		c1.8,0,1.8,0.4,2.1,2.2c0.1,0.3,0.1,0.7,0.2,1.1c0.5,2.3,3.7,20.2,4.2,23.5H34.5c0.5-2.6,2.8-15.9,3.8-21.4c0,0,0,0,0-0.1
		c0-0.1,0-0.2,0-0.3c0,0,0,0,0,0c0-0.1,0-0.2,0-0.2c0,0,0-0.1,0-0.1c0-0.1,0-0.1,0-0.2c0,0,0-0.1,0-0.1c0-0.1,0-0.1,0-0.2
		c0,0,0,0,0-0.1c0-0.1,0-0.1,0-0.2c0,0,0,0,0-0.1c0,0,0-0.1,0-0.1c0,0,0,0,0-0.1c0,0,0-0.1,0-0.1c0,0,0,0,0-0.1c0,0,0-0.1,0-0.1
		c0,0,0,0,0,0c0,0,0-0.1,0-0.1c0.1-0.4,0.1-0.7,0.2-1.1C39.3,42.4,39.3,42.1,41.1,42.1z M27.3,57.8c0.3-0.6,3.1-6.1,4.4-8.7
		c1.5-3,3.1-4.6,4.7-4.6h1.7c0,0,0,0,0,0c0,0.1,0,0.1,0,0.2c0,0,0,0.1,0,0.1c0,0.1,0,0.2-0.1,0.3c0,0,0,0.1,0,0.1c0,0,0,0.1,0,0.1
		c0,0,0,0,0,0.1c0,0,0,0.1,0,0.1c0,0,0,0,0,0.1c0,0,0,0.1,0,0.1c0,0,0,0.1,0,0.1c0,0,0,0.1,0,0.1c0,0,0,0,0,0.1c0,0.1,0,0.1,0,0.2
		c0,0,0,0,0,0.1c0,0.1,0,0.1,0,0.2c0,0,0,0.1,0,0.1c0,0.1,0,0.1,0,0.2c0,0,0,0,0,0.1c0,0.1,0,0.1,0,0.2c0,0,0,0.1,0,0.1
		c0,0.1,0,0.1,0,0.2c0,0,0,0,0,0c0,0.1,0,0.2-0.1,0.3c0,0,0,0,0,0c-1,5.4-3.1,17.2-3.7,20.6c-1.9-1.2-5.4-2.1-8.1-1.4L27.3,57.8z
		 M33.5,77.4c-0.4,2-1.3,3.6-2.3,3.8h0c-0.1,0-0.1,0-0.1,0l0,0c0,0-0.2-0.3,0.5-1.8c0.5-1.1,0.6-3-0.1-4.4C31,74,30,73.3,28.7,73.1
		c-1.4-0.3-2.6,0.1-3.5,1.1c-1,1.1-1.4,2.9-1.3,4c0.1,1.7-0.1,1.9-0.1,1.9c0,0,0,0-0.1,0c-0.8-0.4-1.2-2.3-0.9-4.3
		c0.2-1.5,1.5-3.5,3.6-4.1c0,0,0.1,0,0.1,0c0.1,0,0.1,0,0.2,0c0.1,0,0.2,0,0.3-0.1c0,0,0,0,0.1,0c0.1,0,0.2,0,0.3,0c0,0,0,0,0,0
		c0.2,0,0.5,0,0.7,0c0,0,0,0,0.1,0c0.1,0,0.2,0,0.3,0c0,0,0.1,0,0.1,0c0.1,0,0.2,0,0.4,0.1l0,0c0.1,0,0.3,0,0.4,0.1c0,0,0.1,0,0.1,0
		c0.1,0,0.2,0,0.3,0.1c0,0,0.1,0,0.1,0c0.1,0,0.2,0,0.2,0.1c0,0,0.1,0,0.1,0c0.1,0,0.2,0.1,0.3,0.1c0,0,0.1,0,0.1,0
		c0.1,0,0.2,0.1,0.3,0.1c0,0,0.1,0,0.1,0.1c0.1,0,0.2,0.1,0.2,0.1c0,0,0,0,0.1,0c0.1,0.1,0.2,0.1,0.3,0.2c0,0,0,0,0,0
		c0.1,0.1,0.2,0.1,0.3,0.2l0,0c0.3,0.3,0.5,0.5,0.7,0.8C33.4,74.8,33.7,76.3,33.5,77.4z M30.9,71.3C30.8,71.3,30.8,71.2,30.9,71.3
		c-0.2-0.1-0.2-0.1-0.3-0.1c-0.1,0-0.1,0-0.2-0.1c-0.1,0-0.1,0-0.2-0.1c-0.1,0-0.1,0-0.2-0.1c-0.1,0-0.1,0-0.2,0
		c-0.1,0-0.2,0-0.2-0.1c0,0-0.1,0-0.1,0c-0.1,0-0.3,0-0.4-0.1c-0.1,0-0.2,0-0.3-0.1c0,0-0.1,0-0.1,0c-0.1,0-0.2,0-0.2,0
		c0,0-0.1,0-0.1,0c-0.1,0-0.2,0-0.3,0c0,0,0,0-0.1,0c-0.1,0-0.1,0-0.2,0c0,0,0,0,0,0c0,0,0,0-0.1,0c-0.1,0-0.2,0-0.3,0c0,0,0,0,0,0
		c-0.3,0-0.7,0.1-1,0.1l0.2-1.4l0,0l0.2-1.1c0.1,0,0.1,0,0.2,0c0.1,0,0.1,0,0.2,0c0,0,0.1,0,0.1,0c0.1,0,0.2,0,0.2,0c0,0,0,0,0,0
		c0.6,0,1.1,0,1.7,0.1c0.1,0,0.2,0,0.4,0.1c0.1,0,0.2,0,0.4,0.1c0,0,0.1,0,0.1,0c0.1,0,0.1,0,0.2,0c0.1,0,0.1,0,0.2,0.1
		c0.1,0,0.1,0,0.2,0c0.1,0,0.1,0,0.2,0.1c0.1,0,0.1,0,0.2,0c0.1,0,0.1,0,0.2,0.1c0.1,0,0.1,0,0.2,0.1c0,0,0.1,0,0.1,0.1
		c0.1,0,0.1,0,0.2,0.1c0,0,0.1,0,0.1,0c0.1,0,0.1,0.1,0.2,0.1c0,0,0.1,0,0.1,0c0.1,0,0.1,0.1,0.2,0.1l-0.4,2.6c0,0,0,0,0,0
		C31.5,71.6,31.2,71.4,30.9,71.3z M36,77.3h13.6 M50.5,77.3H52 M52.9,77.3h13.6 M66.9,76.4H52h-1.5H35.6V72h31.3V76.4z M68,71.2
		h-0.3h-33h-0.3v-0.9v-0.6H68V71.2z M70.7,71.8l-0.4-2.6c0.1,0,0.1-0.1,0.2-0.1c0,0,0.1,0,0.1-0.1c0.1,0,0.1,0,0.2-0.1
		c0.1,0,0.1,0,0.2-0.1c0,0,0.1,0,0.1-0.1c0.1,0,0.1,0,0.2-0.1c0.1,0,0.1,0,0.2-0.1c0.1,0,0.1,0,0.2-0.1c0.1,0,0.1,0,0.2-0.1
		c0.1,0,0.1,0,0.2,0c0.1,0,0.1,0,0.2-0.1c0.1,0,0.1,0,0.2,0c0.1,0,0.2,0,0.3-0.1c0,0,0.1,0,0.1,0c0.1,0,0.2,0,0.4-0.1
		c0.2,0,0.5-0.1,0.7-0.1c0,0,0.1,0,0.1,0c0.1,0,0.2,0,0.2,0c0.1,0,0.1,0,0.2,0c0,0,0.1,0,0.1,0c0.1,0,0.2,0,0.3,0c0,0,0.1,0,0.1,0
		c0.1,0,0.2,0,0.3,0c0,0,0.1,0,0.1,0c0.1,0,0.1,0,0.2,0c0,0,0.1,0,0.1,0c0,0,0.1,0,0.1,0c0.1,0,0.1,0,0.2,0l0.2,1.1l0,0l0.2,1.4
		c-0.3-0.1-0.6-0.1-1-0.1c0,0,0,0,0,0c-0.1,0-0.2,0-0.3,0c0,0,0,0-0.1,0c0,0,0,0-0.1,0c-0.1,0-0.1,0-0.2,0c0,0,0,0-0.1,0
		c-0.1,0-0.2,0-0.3,0c0,0-0.1,0-0.1,0c-0.1,0-0.2,0-0.3,0c0,0-0.1,0-0.1,0c-0.1,0-0.2,0-0.3,0.1c-0.1,0-0.3,0-0.4,0.1
		c0,0-0.1,0-0.1,0c-0.1,0-0.2,0-0.2,0.1c-0.1,0-0.1,0-0.2,0c-0.1,0-0.1,0-0.2,0.1c-0.1,0-0.1,0-0.2,0.1c-0.1,0-0.1,0-0.2,0.1
		c-0.1,0-0.1,0.1-0.2,0.1c0,0-0.1,0-0.1,0c-0.2,0.1-0.4,0.2-0.6,0.3c0,0,0,0,0,0C70.9,71.7,70.8,71.7,70.7,71.8
		C70.7,71.8,70.7,71.8,70.7,71.8z M78.9,80c-0.1,0-0.1,0-0.1,0c0,0,0,0,0,0c0,0-0.3-0.2-0.1-1.9c0.1-1.1-0.3-2.9-1.3-4
		c-0.7-0.8-1.6-1.1-2.6-1.1c-0.3,0-0.6,0-0.8,0.1C72.6,73.3,71.6,74,71,75c-0.7,1.4-0.6,3.3-0.1,4.4c0.7,1.5,0.5,1.8,0.5,1.8
		c0,0,0,0-0.1,0h0c-0.9-0.1-1.9-1.8-2.3-3.8c-0.2-1.2,0.2-2.6,0.9-3.7c0.2-0.2,0.4-0.5,0.7-0.8l0,0c0,0,0,0,0,0
		c0.1-0.1,0.2-0.2,0.3-0.2c0,0,0,0,0,0c0.1-0.1,0.2-0.1,0.3-0.2c0,0,0.1,0,0.1,0c0.1,0,0.1-0.1,0.2-0.1c0,0,0.1,0,0.1-0.1
		c0.1,0,0.2-0.1,0.3-0.1c0,0,0.1,0,0.1,0c0.1,0,0.2-0.1,0.3-0.1c0,0,0.1,0,0.1,0c0.1,0,0.1,0,0.2-0.1c0,0,0.1,0,0.1,0
		c0.1,0,0.2,0,0.3-0.1c0,0,0.1,0,0.1,0c0.1,0,0.3,0,0.4-0.1l0,0c0.1,0,0.2,0,0.4-0.1c0,0,0.1,0,0.1,0c0.1,0,0.2,0,0.3,0
		c0,0,0.1,0,0.1,0c0.2,0,0.5,0,0.7,0c0,0,0,0,0,0c0.1,0,0.2,0,0.3,0c0,0,0.1,0,0.1,0c0.1,0,0.2,0,0.3,0.1c0.1,0,0.1,0,0.2,0
		c0,0,0.1,0,0.1,0c2.1,0.6,3.4,2.6,3.6,4.1C80.1,77.7,79.7,79.6,78.9,80z"/>
	<g>
		<path class="st0" d="M45.8,52.4c0.4-0.1,0.8-0.3,1.2-0.5c0.4-0.1,0.7-0.3,1.1-0.4c0.1-0.2,0.2-0.4,0.5-0.6
			c0.3-0.2,0.7-0.3,1.1-0.3c0.1,0,0.3,0,0.4,0l2-0.8c0-0.2,0.2-0.4,0.5-0.6c0.3-0.2,0.7-0.3,1.1-0.3s0.8,0.1,1.1,0.3
			c0.2,0.1,0.4,0.3,0.5,0.5l5,3.7c0,0,0.1,0.1,0.1,0.1c0,0,0,0.1,0,0.1l0,4.5c0,0.1,0,0.1-0.1,0.2c0,0.1-0.1,0.1-0.2,0.1l-12.2,5.5
			c-0.1,0-0.1,0-0.2,0c-0.1,0-0.1,0-0.2-0.1L47,63.4c-0.7-0.6-1.4-1.2-2.1-1.7c-0.4-0.3-0.8-0.7-1.2-1c-0.5-0.4-0.9-0.8-1.4-1.2
			c0,0,0,0,0,0c-0.1-0.1-0.2-0.2-0.2-0.4l0-4.9c0,0,0,0,0,0c0,0,0-0.1,0-0.1c0,0,0.1,0,0.1-0.1c0.3-0.1,0.6-0.2,0.9-0.4l0.9-0.3
			c0.1-0.2,0.2-0.4,0.5-0.5c0.3-0.2,0.7-0.3,1.1-0.3C45.6,52.4,45.7,52.4,45.8,52.4L45.8,52.4z M55.1,53.6l0-1.1l0,0l0,0l0,0
			c0,0,0,0,0,0l0,0l0,0l0,0l0,0c0,0,0,0,0,0c0-0.3,0.2-0.5,0.5-0.7c0.3-0.1,0.6-0.2,1-0.3c0.2,0,0.5,0,0.7,0l-1.9-1.4l0,1h0
			c0,0.3-0.2,0.5-0.5,0.7c-0.3,0.2-0.7,0.3-1.1,0.3c-0.4,0-0.8-0.1-1.1-0.3c-0.3-0.2-0.5-0.4-0.5-0.7h0l0-0.9l-1.7,0.7
			c0.1,0,0.3,0.1,0.4,0.2c0.3,0.2,0.5,0.4,0.5,0.6h0l0,1.1h0c0,0.3-0.2,0.5-0.5,0.7c-0.3,0.2-0.7,0.3-1.1,0.3s-0.8-0.1-1.1-0.3
			c-0.3-0.2-0.5-0.4-0.5-0.7h0l0-1c-0.3,0.1-0.6,0.3-1,0.4c-0.3,0.1-0.6,0.2-0.9,0.3c0.2,0,0.3,0.1,0.5,0.2c0.3,0.2,0.5,0.4,0.5,0.6
			h0l0,1.1h0c0,0.3-0.2,0.5-0.5,0.7c-0.3,0.2-0.7,0.3-1.1,0.3s-0.8-0.1-1.1-0.3c-0.3-0.2-0.5-0.4-0.5-0.7h0l0-1l-0.8,0.3
			c-0.3,0.1-0.6,0.2-0.9,0.4c0,0,0,0,0,0c0.5,0.4,1,0.9,1.5,1.3c0.4,0.3,0.8,0.7,1.2,1c0.7,0.6,1.4,1.2,2.1,1.7l0.7,0.6
			c0,0,0.1,0,0.1,0c0,0,0.1,0,0.1,0c0.9-0.4,1.8-0.8,2.8-1.2c1.1-0.5,2.2-0.9,3.3-1.4c1.8-0.7,3.5-1.5,5.3-2.2l0.8-0.3
			c0.1,0,0.1-0.1,0-0.1l-1.7-1.3l0,0l0,0c0,0,0,0,0,0l0,0c0,0,0,0,0,0l0,0c0,0,0,0,0,0l0,0c0,0,0,0,0,0l0,0c0,0,0,0,0,0l0,0
			c0,0,0,0,0,0l0,0l0,0c0,0,0,0,0,0v0l0,0h0l0,1.1h0c0,0.3-0.2,0.5-0.5,0.7c-0.3,0.2-0.7,0.3-1.1,0.3s-0.8-0.1-1.1-0.3
			C55.3,54.1,55.1,53.8,55.1,53.6L55.1,53.6L55.1,53.6z M55.4,52.9l0,0.7h0c0,0.2,0.2,0.4,0.4,0.5c0.3,0.1,0.6,0.2,1,0.2
			s0.8-0.1,1-0.2c0.2-0.1,0.4-0.3,0.4-0.5h0l0-0.7l0,0c0,0,0,0,0,0l0,0c0,0,0,0,0,0l0,0c0,0,0,0,0,0l0,0c0,0,0,0,0,0l0,0
			c0,0,0,0,0,0l0,0c0,0,0,0,0,0l0,0c0,0,0,0,0,0l0,0c0,0,0,0,0,0l0,0c0,0,0,0,0,0l0,0c0,0,0,0,0,0l0,0c0,0,0,0,0,0l0,0c0,0,0,0,0,0
			l0,0c0,0,0,0,0,0l0,0c0,0,0,0,0,0l0,0c0,0,0,0,0,0l0,0c0,0,0,0,0,0l0,0c0,0,0,0,0,0l0,0c0,0,0,0,0,0l0,0l0,0c0,0,0,0,0,0l0,0
			c0,0,0,0,0,0l0,0c0,0,0,0,0,0l0,0l0,0l0,0c0,0,0,0,0,0l0,0c0,0,0,0,0,0l0,0c0,0,0,0,0,0c-0.3,0.2-0.7,0.3-1.1,0.3
			s-0.8-0.1-1.1-0.3c0,0,0,0,0,0l0,0c0,0,0,0,0,0l0,0c0,0,0,0,0,0l0,0c0,0,0,0,0,0l0,0c0,0,0,0,0,0l0,0c0,0,0,0,0,0l0,0c0,0,0,0,0,0
			l0,0c0,0,0,0,0,0l0,0c0,0,0,0,0,0l0,0c0,0,0,0,0,0l0,0c0,0,0,0,0,0l0,0c0,0,0,0,0,0l0,0C55.5,53,55.5,53,55.4,52.9L55.4,52.9
			C55.4,53,55.4,53,55.4,52.9L55.4,52.9C55.4,53,55.4,53,55.4,52.9L55.4,52.9C55.4,53,55.4,53,55.4,52.9L55.4,52.9
			C55.4,53,55.4,52.9,55.4,52.9L55.4,52.9C55.4,52.9,55.4,52.9,55.4,52.9L55.4,52.9C55.4,52.9,55.4,52.9,55.4,52.9L55.4,52.9
			C55.4,52.9,55.4,52.9,55.4,52.9C55.4,52.9,55.4,52.9,55.4,52.9L55.4,52.9C55.4,52.9,55.4,52.9,55.4,52.9L55.4,52.9L55.4,52.9z
			 M57.8,51.9c-0.3-0.1-0.6-0.2-1-0.2c-0.4,0-0.8,0.1-1,0.2c-0.2,0.1-0.4,0.3-0.4,0.5s0.2,0.4,0.4,0.5c0.3,0.1,0.6,0.2,1,0.2
			c0.4,0,0.8-0.1,1-0.2c0.2-0.1,0.4-0.3,0.4-0.5S58.1,52,57.8,51.9z M52.3,50.5l0,0.6h0c0,0.2,0.2,0.4,0.4,0.5
			c0.3,0.1,0.6,0.2,1,0.2c0.4,0,0.8-0.1,1-0.2c0.2-0.1,0.4-0.3,0.4-0.5h0l0-0.6c-0.1,0.1-0.2,0.2-0.3,0.2c-0.3,0.2-0.7,0.3-1.1,0.3
			c-0.4,0-0.8-0.1-1.1-0.3C52.5,50.7,52.4,50.6,52.3,50.5z M54.8,49.5c-0.3-0.1-0.6-0.2-1-0.2c-0.4,0-0.8,0.1-1,0.2
			c-0.2,0.1-0.4,0.3-0.4,0.5s0.2,0.4,0.4,0.5c0.3,0.1,0.6,0.2,1,0.2c0.4,0,0.8-0.1,1-0.2c0.2-0.1,0.4-0.3,0.4-0.5
			S55.1,49.7,54.8,49.5z M51.1,55.2l0-1.1l0,0l0,0l0,0c0,0,0,0,0,0l0,0l0,0l0,0l0,0c0,0,0,0,0,0c0-0.3,0.2-0.5,0.5-0.7
			c0.3-0.2,0.7-0.3,1.1-0.3c0.6,0,1.6,0.2,1.6,1l0,0h0l0,1.1h0c0,0.3-0.2,0.5-0.5,0.7c-0.3,0.2-0.7,0.3-1.1,0.3s-0.8-0.1-1.1-0.3
			C51.3,55.7,51.1,55.5,51.1,55.2C51.1,55.2,51.1,55.2,51.1,55.2z M51.3,54.5l0,0.7h0c0,0.2,0.2,0.4,0.4,0.5c0.3,0.1,0.6,0.2,1,0.2
			c0.4,0,0.8-0.1,1-0.2c0.2-0.1,0.4-0.3,0.4-0.5h0l0-0.7l0,0c-0.4,0.4-1,0.5-1.4,0.5C52.3,55,51.6,54.9,51.3,54.5L51.3,54.5
			C51.3,54.5,51.3,54.5,51.3,54.5C51.3,54.5,51.3,54.5,51.3,54.5z M53.8,53.5c-0.3-0.1-0.6-0.2-1-0.2c-0.4,0-0.8,0.1-1,0.2
			c-0.2,0.1-0.4,0.3-0.4,0.5s0.2,0.4,0.4,0.5c0.3,0.1,0.6,0.2,1,0.2c0.4,0,0.8-0.1,1-0.2c0.2-0.1,0.4-0.3,0.4-0.5S54,53.7,53.8,53.5
			z M51.2,52.2c-0.1,0.1-0.2,0.2-0.3,0.2c-0.3,0.2-0.7,0.3-1.1,0.3s-0.8-0.1-1.1-0.3c-0.1-0.1-0.2-0.1-0.3-0.2l0,0.6h0
			c0,0.2,0.2,0.4,0.4,0.5c0.3,0.1,0.6,0.2,1,0.2c0.4,0,0.8-0.1,1-0.2c0.2-0.1,0.4-0.3,0.4-0.5h0C51.2,52.7,51.2,52.2,51.2,52.2z
			 M50.8,51.2c-0.3-0.1-0.6-0.2-1-0.2c-0.4,0-0.8,0.1-1,0.2c-0.2,0.1-0.4,0.3-0.4,0.5s0.2,0.4,0.4,0.5c0.3,0.1,0.6,0.2,1,0.2
			c0.4,0,0.8-0.1,1-0.2c0.2-0.1,0.4-0.3,0.4-0.5S51,51.3,50.8,51.2z M46.9,56.9l0-1.1l0,0l0,0l0,0c0,0,0,0,0,0l0,0l0,0l0,0l0,0
			c0,0,0,0,0,0c0-0.3,0.2-0.5,0.5-0.7c0.3-0.2,0.7-0.3,1.1-0.3c0.5,0,1.6,0.2,1.6,1l0,0h0l0,1.1h0c0,0.3-0.2,0.5-0.5,0.7
			c-0.3,0.2-0.7,0.3-1.1,0.3s-0.8-0.1-1.1-0.3C47.1,57.4,46.9,57.2,46.9,56.9C46.9,56.9,46.9,56.9,46.9,56.9z M47.1,56.2l0,0.7h0
			c0,0.2,0.2,0.4,0.4,0.5c0.3,0.1,0.6,0.2,1,0.2c0.4,0,0.8-0.1,1-0.2c0.2-0.1,0.4-0.3,0.4-0.5h0l0-0.7l0,0c-0.3,0.4-1,0.5-1.4,0.5
			C48.1,56.7,47.5,56.6,47.1,56.2C47.1,56.2,47.1,56.2,47.1,56.2z M49.6,55.2c-0.3-0.1-0.6-0.2-1-0.2c-0.4,0-0.8,0.1-1,0.2
			c-0.2,0.1-0.4,0.3-0.4,0.5s0.2,0.4,0.4,0.5c0.3,0.1,0.6,0.2,1,0.2c0.4,0,0.8-0.1,1-0.2c0.2-0.1,0.4-0.3,0.4-0.5
			S49.8,55.4,49.6,55.2z M47,53.9c-0.1,0.1-0.2,0.2-0.3,0.2c-0.3,0.2-0.7,0.3-1.1,0.3s-0.8-0.1-1.1-0.3c-0.1-0.1-0.2-0.1-0.3-0.2
			l0,0.6h0c0,0.2,0.2,0.4,0.4,0.5c0.3,0.1,0.6,0.2,1,0.2c0.4,0,0.8-0.1,1-0.2c0.2-0.1,0.4-0.3,0.4-0.5h0C47,54.4,47,53.9,47,53.9z
			 M46.6,52.8c-0.3-0.1-0.6-0.2-1-0.2c-0.4,0-0.8,0.1-1,0.2c-0.2,0.1-0.4,0.3-0.4,0.5s0.2,0.4,0.4,0.5c0.3,0.1,0.6,0.2,1,0.2
			c0.4,0,0.8-0.1,1-0.2c0.2-0.1,0.4-0.3,0.4-0.5S46.8,53,46.6,52.8z M47.8,63.9l0-4.8l0,0c-0.2,0-0.7-0.5-0.9-0.7
			c-0.7-0.6-1.4-1.2-2.1-1.7c-0.4-0.3-0.8-0.7-1.2-1c-0.5-0.4-1-0.8-1.4-1.2l0,4.6c0,0.2,0.1,0.2,0.1,0.3c0,0,0,0,0,0
			c0.5,0.4,0.9,0.8,1.4,1.2c0.4,0.3,0.8,0.7,1.2,1c0.7,0.6,1.4,1.2,2.1,1.7L47.8,63.9C47.8,63.8,47.8,63.9,47.8,63.9z M48.1,59
			l0,4.8l12.2-5.5c0,0,0,0,0.1,0c0,0,0,0,0-0.1l0-4.3l-0.8,0.3c-1.8,0.7-3.5,1.5-5.3,2.2c-1.1,0.5-2.2,0.9-3.3,1.4
			C50.7,57.9,48.2,59,48.1,59z"/>
	</g>
</g>
</svg>
