<?xml version="1.0" encoding="utf-8"?>
<!-- Generator: Adobe Illustrator 26.0.1, SVG Export Plug-In . SVG Version: 6.00 Build 0)  -->
<svg version="1.1" xmlns="http://www.w3.org/2000/svg" xmlns:xlink="http://www.w3.org/1999/xlink" x="0px" y="0px"
	 viewBox="0 0 77.3 57.7" style="enable-background:new 0 0 77.3 57.7;" xml:space="preserve">
<style type="text/css">
	.st0{fill:#333333;}
	.st1{display:none;fill:#FFFFFF;}
	.st2{fill:#FFFFFF;}
	.st3{fill:#333333;stroke:#FFFFFF;stroke-width:0.5;stroke-miterlimit:10;}
	.st4{fill:#333333;stroke:#FFFFFF;stroke-miterlimit:10;}
</style>
<g id="Ebene_2">
	<rect x="51.6" y="63.8" class="st0" width="1.1" height="10.5"/>
	<path class="st0" d="M36.7,63.8c0.3-2-0.5-3.9-2-5.1l-0.1-0.1l0.6-3.5l-4.5-0.8L30,57.8l-0.1,0c-1.9,0.6-3.3,2.2-3.6,4.1
		c-0.3,1.8,0.4,3.7,1.8,4.9l0.4-2.3c-0.4-0.7-0.5-1.5-0.4-2.3c0.3-1.7,1.7-2.9,3.4-2.9c0.2,0,0.4,0,0.6,0c0.9,0.2,1.7,0.7,2.3,1.4
		c0.5,0.8,0.8,1.7,0.6,2.6c-0.2,1-0.8,1.9-1.7,2.4L32.9,68C34.8,67.4,36.3,65.8,36.7,63.8z"/>
	<path class="st0" d="M40.3,34.1c0,0-0.8,0-1.7,0.2c-1.2,0.3-2,0.8-2.4,1.6c-1.1,2-3.7,6.2-3.8,6.4c-0.1,0.2-1.2,2.7-1.5,4.3
		c-0.3,1.5-1.2,6.2-1.4,7.2l7.1,1.2l2.1-10.6h0.4c0.9-4.5,1.7-8.8,2-10.3H40.3z"/>
	<rect x="38.3" y="59.4" class="st0" width="29.1" height="4.1"/>
	<rect x="53.1" y="63.8" class="st0" width="1.1" height="10.5"/>
	<path class="st0" d="M79.4,62c-0.3-2-1.7-3.5-3.6-4.1l-0.1,0l-0.6-3.5l-4.5,0.8l0.6,3.5l-0.1,0.1c-1.6,1.2-2.4,3.1-2,5.1
		c0.3,2,1.8,3.6,3.8,4.2l-0.4-2.1c-0.9-0.5-1.5-1.4-1.7-2.4c-0.2-0.9,0.1-1.8,0.6-2.6c0.5-0.8,1.3-1.3,2.3-1.4c0.2,0,0.4,0,0.6,0
		c1.7,0,3.2,1.2,3.4,2.9c0.1,0.8,0,1.6-0.4,2.3l0.4,2.3C79.1,65.7,79.7,63.8,79.4,62z"/>
	<path class="st0" d="M67,44.4L69.1,55l7.1-1.2c-0.2-1-1.1-5.7-1.4-7.2c-0.3-1.6-1.4-4.1-1.5-4.3c-0.1-0.2-2.7-4.4-3.8-6.4
		c-1.1-2-4.1-1.8-4.1-1.8h-0.9c0.3,1.4,1.1,5.8,2,10.3H67z"/>
	<path class="st0" d="M48.4,12.2h9.5V8.7c0-0.1-0.1-0.2-0.2-0.2h-9.1c-0.1,0-0.2,0.1-0.2,0.2V12.2z"/>
	<path class="st0" d="M58.9,30c0,0-3.3,0.4-5.8,0.4c-2.6,0-5.8-0.4-5.8-0.4c-0.2,0-0.4-0.1-0.6-0.1v2.6h12.8v-2.6
		C59.3,29.9,59.1,29.9,58.9,30z"/>
	<path class="st0" d="M63.3,25.2v-8.3c0-2.4-2-4.4-4.4-4.4H47.3c-2.4,0-4.4,2-4.4,4.4v8.3c0,2.3,1.7,4,4.4,4.4c0,0,3.2,0.4,5.8,0.4
		c2.5,0,5.7-0.4,5.8-0.4C61.6,29.2,63.3,27.5,63.3,25.2z"/>
	<polygon class="st0" points="68,84.2 67.4,63.8 54.5,63.8 54.5,84.2 	"/>
	<polygon class="st0" points="68.3,92.1 68.1,85.7 54.5,85.7 54.5,92.1 	"/>
	<polygon class="st0" points="38.3,63.8 37.7,84.2 51.2,84.2 51.2,63.8 	"/>
	<polygon class="st0" points="37.6,85.7 37.4,92.1 51.2,92.1 51.2,85.7 	"/>
	<path class="st0" d="M68.4,56.9c0-0.6-4-21.8-4.4-23.1c-0.2-0.9-0.8-0.9-0.9-0.9l0,0l-20.5,0c-0.2,0-0.7,0.1-0.9,0.9
		c-0.4,1.3-4.4,22.5-4.4,23.1v1.9c0,0.1,0.1,0.2,0.2,0.2h30.8c0.1,0,0.2-0.1,0.2-0.2V56.9z"/>
	<path class="st1" d="M40.6,30.3c0,0,1.1-0.3,2.5,0s2,0.5,2.5,1c0.5,0.4,2.5,3.4,2.5,3.4l2.5,4.7l2.2,5c0,0,0.6,3.2,0.6,3.5
		c0,0.3,0.8,4.5,0.8,4.5v1.1h1.1L55,49.2l-0.6-3.9c0,0-1-3.3-1.8-4.9C51.9,38.7,49,34,49,34s-1.2-2-2.6-3.2
		c-1.3-1.2-3.3-1.4-3.3-1.4h-2.5V30.3z"/>
	<polyline class="st2" points="55.4,53.4 55.4,55.6 55.4,57.7 53.6,57.7 54.2,53.4 	"/>
</g>
<g id="Ebene_1">
	<rect x="26" y="64.4" class="st0" width="1.3" height="12.1"/>
	<path class="st0" d="M9,64.4c0.4-2.2-0.5-4.5-2.3-5.8l-0.1-0.1l0.7-4l-5.1-0.9l-0.7,4l-0.1,0c-2.2,0.7-3.8,2.5-4.1,4.7
		c-0.4,2.1,0.4,4.2,2,5.6l0.4-2.6c-0.4-0.8-0.6-1.7-0.5-2.6c0.3-1.9,2-3.3,3.9-3.3c0.2,0,0.5,0,0.7,0.1c1,0.2,2,0.8,2.6,1.6
		C6.9,61.9,7.2,63,7,64c-0.2,1.2-0.9,2.2-1.9,2.8l-0.4,2.3C6.9,68.5,8.6,66.7,9,64.4z"/>
	<path class="st0" d="M13.2,30.5c0,0-0.9,0-1.9,0.2C9.9,31,9,31.6,8.5,32.5c-1.3,2.3-4.2,7.1-4.3,7.3c-0.1,0.2-1.4,3.1-1.7,4.9
		c-0.3,1.7-1.3,7.1-1.5,8.2l8.1,1.4l2.4-12.1h0.5c1-5.1,1.9-10.1,2.3-11.7H13.2z"/>
	<rect x="10.9" y="59.3" class="st0" width="33.2" height="4.7"/>
	<rect x="27.7" y="64.4" class="st0" width="1.3" height="12.1"/>
	<path class="st3" d="M57.8,62.3c-0.4-2.2-2-4-4.1-4.7l-0.1,0l-0.7-4l-5.1,0.9l0.7,4l-0.1,0.1c-1.8,1.4-2.7,3.6-2.3,5.8
		c0.4,2.3,2.1,4.1,4.3,4.8l-0.4-2.3c-1-0.6-1.7-1.6-1.9-2.8c-0.2-1.1,0.1-2.1,0.7-3c0.6-0.9,1.5-1.4,2.6-1.6c0.2,0,0.4-0.1,0.7-0.1
		c2,0,3.6,1.4,3.9,3.3c0.2,0.9,0,1.8-0.5,2.6l0.4,2.6C57.4,66.5,58.2,64.4,57.8,62.3z"/>
	<path class="st4" d="M43.6,42.2L46,54.3l8.1-1.4c-0.2-1.1-1.2-6.5-1.5-8.2c-0.3-1.8-1.7-4.7-1.7-4.9c-0.2-0.3-3-5-4.3-7.3
		c-1.3-2.2-4.6-2.1-4.7-2.1h-1c0.4,1.7,1.3,6.6,2.3,11.7H43.6z"/>
	<path class="st0" d="M22.4,5.4h10.8v-4c0-0.1-0.1-0.2-0.2-0.2H22.6c-0.1,0-0.2,0.1-0.2,0.2V5.4z"/>
	<path class="st0" d="M34.4,25.7c0,0-3.7,0.4-6.7,0.4c-2.9,0-6.6-0.4-6.7-0.4c-0.2,0-0.4-0.1-0.7-0.1v3h14.6v-3
		C34.9,25.6,34.6,25.7,34.4,25.7z"/>
	<path class="st0" d="M39.4,20.3v-9.4c0-2.8-2.2-5-5-5H21.1c-2.8,0-5,2.2-5,5v9.4c0,2.7,2,4.6,5,5c0,0,3.7,0.4,6.6,0.4
		c2.9,0,6.6-0.4,6.6-0.4C37.4,24.9,39.4,22.9,39.4,20.3z"/>
	<polygon class="st0" points="44.8,87.7 44.1,64.4 29.4,64.4 29.4,87.7 	"/>
	<polygon class="st0" points="45.1,96.8 44.9,89.4 29.4,89.4 29.4,96.8 	"/>
	<polygon class="st0" points="10.9,64.4 10.2,87.7 25.6,87.7 25.6,64.4 	"/>
	<polygon class="st0" points="10.1,89.4 9.9,96.8 25.6,96.8 25.6,89.4 	"/>
	<path class="st0" d="M45.3,56.5c0-0.7-4.6-24.9-5-26.4c-0.3-1-0.9-1.1-1.1-1.1l0,0l-23.4,0c-0.2,0-0.8,0.1-1.1,1.1
		c-0.4,1.5-5,25.8-5,26.4v2.2c0,0.1,0.1,0.2,0.2,0.2h35.2c0.1,0,0.2-0.1,0.2-0.2V56.5z"/>
</g>
</svg>
