<?xml version="1.0" encoding="utf-8"?>
<!-- Generator: Adobe Illustrator 26.0.1, SVG Export Plug-In . SVG Version: 6.00 Build 0)  -->
<svg version="1.1" id="_x3C_Layer_x3E_" xmlns="http://www.w3.org/2000/svg" xmlns:xlink="http://www.w3.org/1999/xlink" x="0px"
	 y="0px" viewBox="0 0 1489.6 1275.5" style="enable-background:new 0 0 1489.6 1275.5;" xml:space="preserve">
<style type="text/css">
	.st0{display:none;fill:#727272;}
	.st1{fill:#333333;}
	.st2{fill:#0C0C0C;}
</style>
<rect x="-99.5" y="-480.6" class="st0" width="1755.6" height="1756.1"/>
<g>
	<g>
		<g>
			<path class="st1" d="M1087.9,634.3c0,72.3-58.6,130.9-131,130.9H532.7c-72.3,0-131-58.6-131-130.9V310.6
				c0-72.3,58.6-130.9,131-130.9h424.3c72.3,0,131,58.6,131,130.9V634.3z"/>
			<path class="st2" d="M956.9,769.6H532.7c-74.6,0-135.4-60.7-135.4-135.3V310.6c0-74.6,60.7-135.3,135.4-135.3h424.3
				c74.6,0,135.4,60.7,135.4,135.3v323.7C1092.3,708.9,1031.6,769.6,956.9,769.6z M532.7,184.1c-69.8,0-126.6,56.8-126.6,126.5
				v323.7c0,69.8,56.8,126.5,126.6,126.5h424.3c69.8,0,126.6-56.8,126.6-126.5V310.6c0-69.8-56.8-126.5-126.6-126.5H532.7z"/>
		</g>
		<g>
			<rect x="532.7" y="765.2" class="st1" width="424.3" height="67.6"/>
			<path class="st2" d="M961.3,837.2H528.3v-76.4h433.1V837.2z M537.1,828.4h415.5v-58.8H537.1V828.4z"/>
		</g>
		<g>
			<path class="st1" d="M911.8,179.7V60.5c0-8.3-6.7-15-15-15H592.8c-8.3,0-15,6.7-15,15v119.2H911.8z"/>
			<path class="st2" d="M916.2,184.1H573.4V60.5c0-10.7,8.7-19.3,19.3-19.3h304.1c10.7,0,19.3,8.7,19.3,19.3V184.1z M582.2,175.3
				h325.2V60.5c0-5.8-4.7-10.6-10.6-10.6H592.8c-5.8,0-10.6,4.7-10.6,10.6V175.3z"/>
		</g>
		<g>
			<g>
				<path class="st1" d="M1141.1,869.4c-7.4-30.5-20.1-36.6-42.3-36.6c-19.1,0-689,0-708,0c-22.2,0-34.9,6-42.3,36.6
					c-7.4,30.5-77.5,406.1-77.5,406.1h947.6C1218.6,1275.5,1148.5,899.9,1141.1,869.4z"/>
				<path class="st2" d="M1223.9,1279.9H265.7l1-5.2c2.9-15.3,70.3-376.1,77.6-406.4c8.1-33.4,23.2-39.9,46.5-39.9h708
					c23.4,0,38.5,6.5,46.6,39.9c7.3,30.3,74.7,391,77.6,406.4L1223.9,1279.9z M276.3,1271.1h937.1c-8.5-45.5-69.7-372.6-76.5-400.7
					c-6.8-28.2-17.7-33.2-38-33.2h-708c-20.3,0-31.2,5-38,33.2C346,898.5,284.8,1225.6,276.3,1271.1z"/>
			</g>
			<g>
				<path class="st1" d="M1218.6,1275.5c0,0-75.3-396.5-77.3-405c-2-8.5,19.5-18,53,10.3c33.5,28.3,160,149,254.2,304.5
					c33,54.4,36.3,90.2,36.3,90.2H1218.6z"/>
				<path class="st2" d="M1489.6,1279.9H1215l-0.7-3.6c-0.8-4-75.3-396.5-77.2-404.9c-0.7-2.8,0-5.8,2-8.2c3-3.7,8.5-5.9,15.2-5.9
					c12.4,0,27.7,7.1,42.9,20c39.8,33.6,163.4,154.1,255.2,305.6c33.1,54.6,36.7,90.6,36.9,92.1L1489.6,1279.9z M1222.3,1271.1
					h257.4c-2.1-11.4-9.7-42.1-34.9-83.6c-91.2-150.4-213.8-270-253.3-303.4c-18.5-15.6-31.3-17.9-37.3-17.9c-4.6,0-7.4,1.4-8.3,2.5
					C1147.5,877.6,1214.3,1229,1222.3,1271.1z"/>
			</g>
			<g>
				<path class="st1" d="M271,1275.5c0,0,75.3-396.5,77.3-405c2-8.5-19.5-18-53,10.3c-33.5,28.3-160,149-254.2,304.5
					c-33,54.4-36.3,90.2-36.3,90.2H271z"/>
				<path class="st2" d="M274.6,1279.9H0l0.4-4.8c0.1-1.5,3.8-37.5,36.9-92.1c91.8-151.5,215.3-271.9,255.1-305.6
					c15.3-12.9,30.5-20,42.9-20c6.7,0,12.2,2.1,15.2,5.9c1.9,2.4,2.6,5.3,2,8.2c-1.9,8.4-76.5,400.9-77.2,404.9L274.6,1279.9z
					 M9.9,1271.1h257.4c8-42.1,74.7-393.4,76.6-401.6c-1.2-1.9-4-3.3-8.6-3.3c-6,0-18.8,2.3-37.3,17.9
					c-39.5,33.4-162.1,153-253.3,303.4C19.7,1229,12.1,1259.7,9.9,1271.1z"/>
			</g>
		</g>
	</g>
</g>
</svg>
