<svg height='100px' width='100px'  fill="#333333" xmlns:dc="http://purl.org/dc/elements/1.1/" xmlns:cc="http://creativecommons.org/ns#" xmlns:rdf="http://www.w3.org/1999/02/22-rdf-syntax-ns#" xmlns:svg="http://www.w3.org/2000/svg" xmlns="http://www.w3.org/2000/svg" xmlns:sodipodi="http://sodipodi.sourceforge.net/DTD/sodipodi-0.dtd" xmlns:inkscape="http://www.inkscape.org/namespaces/inkscape" viewBox="0 0 16.933333 16.933334" version="1.1" x="0px" y="0px"><g transform="translate(0,-280.06665)"><path style="color:#000000;font-style:normal;font-variant:normal;font-weight:normal;font-stretch:normal;font-size:medium;line-height:normal;font-family:sans-serif;font-variant-ligatures:normal;font-variant-position:normal;font-variant-caps:normal;font-variant-numeric:normal;font-variant-alternates:normal;font-feature-settings:normal;text-indent:0;text-align:start;text-decoration:none;text-decoration-line:none;text-decoration-style:solid;text-decoration-color:#000000;letter-spacing:normal;word-spacing:normal;text-transform:none;writing-mode:lr-tb;direction:ltr;text-orientation:mixed;dominant-baseline:auto;baseline-shift:baseline;text-anchor:start;white-space:normal;shape-padding:0;clip-rule:nonzero;display:inline;overflow:visible;visibility:visible;opacity:1;isolation:auto;mix-blend-mode:normal;color-interpolation:sRGB;color-interpolation-filters:linearRGB;solid-color:#000000;solid-opacity:1;vector-effect:none;fill:#333333;fill-opacity:1;fill-rule:nonzero;stroke:none;stroke-width:0.5291667;stroke-linecap:round;stroke-linejoin:round;stroke-miterlimit:4;stroke-dasharray:none;stroke-dashoffset:0;stroke-opacity:1;color-rendering:auto;image-rendering:auto;shape-rendering:auto;text-rendering:auto;enable-background:accumulate" d="m 8.4660453,281.12446 c -0.009,0 -0.0162,0.006 -0.0253,0.006 v -0.004 a 0.26460982,0.26460982 0 0 0 -0.0724,0.0176 0.26460982,0.26460982 0 0 0 -0.004,0.002 c -4.0386401,0.0579 -7.30658,3.33433 -7.30653,7.38663 0,0.97984 0.278746,1.99073 0.8531779,2.59415 0.287208,0.30171 0.672007,0.49729 1.1038071,0.47439 0.4318109,-0.0229 0.8794729,-0.25173 1.337903,-0.69711 a 0.26460982,0.26460982 0 0 0 0.0041,-0.002 c 0.5026189,-0.50259 1.31816,-0.54936 1.8045409,-0.0646 0.4847511,0.48638 0.440132,1.30398 -0.06253,1.80661 a 0.26460982,0.26460982 0 0 0 -0.00209,0.002 c -0.4453808,0.45843 -0.676293,0.90816 -0.6991819,1.33997 -0.022889,0.43181 0.1747459,0.81607 0.4764559,1.10329 0.603419,0.57443 1.6122471,0.85163 2.5920971,0.85163 4.0883897,4e-5 7.4078497,-3.31994 7.4078097,-7.40834 2e-5,-2.0442 -0.82868,-3.89668 -2.16782,-5.23792 -1.318101,-1.31607 -3.138381,-2.12277 -5.1407807,-2.15077 a 0.26460982,0.26460982 0 0 0 -0.0992,-0.0192 z m 0,0.52968 c 1.9011897,-2e-5 3.6191697,0.76905 4.8653297,2.01332 1.24424,1.24619 2.01334,2.96413 2.01331,4.86533 4e-5,3.80241 -3.07625,6.87921 -6.8786397,6.87917 -0.87225,0 -1.785926,-0.28575 -2.2267462,-0.70539 -0.2204079,-0.20982 -0.3265717,-0.43019 -0.312642,-0.69298 0.013891,-0.26218 0.1608932,-0.59778 0.5472531,-0.99632 l 0.00159,-0.002 c 0.6938551,-0.69581 0.7630851,-1.84632 0.06098,-2.55074 -0.703961,-0.70162 -1.85479,-0.63207 -2.55075,0.0605 -0.3997691,0.38838 -0.7376629,0.53487 -1.000455,0.5488 -0.2628,0.0139 -0.481611,-0.0917 -0.691431,-0.31212 -0.4196275,-0.44083 -0.7069196,-1.35659 -0.7069196,-2.22882 -4.99e-5,-3.80241 3.0767551,-6.87869 6.8791627,-6.87865 z m 0.4625,1.58802 c -0.87362,0 -1.58751,0.71388 -1.58751,1.5875 0,0.87362 0.71389,1.58595 1.58751,1.58595 0.87361,0 1.5880197,-0.71233 1.5880197,-1.58595 0,-0.87362 -0.7144097,-1.5875 -1.5880197,-1.5875 z m 0,0.52916 c 0.58763,0 1.05885,0.4707 1.05885,1.05834 0,0.58763 -0.47122,1.05885 -1.05885,1.05885 -0.58764,0 -1.05834,-0.47122 -1.05834,-1.05885 0,-0.58764 0.4707,-1.05834 1.05834,-1.05834 z m -4.2323041,1.58802 c -0.873609,0 -1.588016,0.71182 -1.588016,1.58543 0,0.87362 0.714407,1.58802 1.588016,1.58802 0.87362,0 1.5859501,-0.7144 1.5859501,-1.58802 0,-0.87361 -0.7123301,-1.58543 -1.5859501,-1.58543 z m 0,0.52917 c 0.5876401,0 1.0567831,0.46863 1.0567831,1.05626 0,0.58764 -0.469143,1.05885 -1.0567831,1.05885 -0.587629,0 -1.0583328,-0.47121 -1.0583328,-1.05885 0,-0.58763 0.4707038,-1.05626 1.0583328,-1.05626 z m 7.4083338,0.5271 c -0.87362,0 -1.58801,0.71439 -1.58801,1.58801 0,0.87362 0.71439,1.58802 1.58801,1.58802 0.87362,0 1.58595,-0.7144 1.58595,-1.58802 0,-0.87362 -0.71233,-1.58801 -1.58595,-1.58801 z m 0,0.52916 c 0.58763,0 1.05834,0.47122 1.05834,1.05885 0,0.58764 -0.47071,1.05834 -1.05834,1.05834 -0.58764,0 -1.05885,-0.4707 -1.05885,-1.05834 0,-0.58763 0.47121,-1.05885 1.05885,-1.05885 z m -2.1171797,3.7052 c -0.87362,0 -1.58802,0.7144 -1.58802,1.58802 0,0.87362 0.7144,1.58802 1.58802,1.58802 0.8736197,0 1.5880197,-0.7144 1.5880197,-1.58802 0,-0.87362 -0.7144,-1.58802 -1.5880197,-1.58802 z m 0,0.52969 c 0.5876397,0 1.0583297,0.4707 1.0583297,1.05833 0,0.58764 -0.47069,1.05885 -1.0583297,1.05885 -0.58764,0 -1.05885,-0.47121 -1.05885,-1.05885 0,-0.58763 0.47121,-1.05833 1.05885,-1.05833 z"></path></g></svg>