<svg height='100px' width='100px'  fill="#333333" xmlns="http://www.w3.org/2000/svg" xmlns:xlink="http://www.w3.org/1999/xlink" version="1.1" x="0px" y="0px" viewBox="0 0 50 50" enable-background="new 0 0 50 50" xml:space="preserve"><g><path d="M44.492,7.821C37.388,8.966,30.637,7.732,23.851,4.05c-2.347-1.284-5.212,0.163-5.664,2.733l-1.259,7.134   c-3.764,0.814-7.574,0.94-11.415,0.319c-2.688-0.432-4.909,1.906-4.452,4.499l1.529,8.671C4.553,38.542,15.13,44.196,19.586,46.11   c1.394,0.598,3.042,0.346,4.193-0.739c1.235-1.16,3.015-3.006,4.726-5.388c0.124,0.012,0.248,0.027,0.373,0.027   c0.523,0,1.047-0.104,1.54-0.313c4.458-1.923,15.038-7.594,16.999-18.705l1.518-8.667C49.416,9.64,47.083,7.396,44.492,7.821z    M22.409,43.913c-0.538,0.509-1.351,0.653-2.034,0.358c-4.157-1.785-14.021-7.037-15.815-17.213L3.03,18.388   c-0.209-1.186,0.72-2.202,1.851-2.202c0.104,0,0.208,0.008,0.315,0.025c7.761,1.251,15.172-0.334,21.908-3.989   c1.124-0.607,2.519,0.059,2.743,1.326l1.548,8.779C33.189,32.504,25.709,40.814,22.409,43.913z M35.362,26.611   c-0.398,0.485-1.042,0.86-1.823,1.101c0.051-0.463,0.087-0.931,0.107-1.405L35.362,26.611z M46.966,11.975l-1.519,8.669   c-1.741,9.864-11.093,15.108-15.433,17.042c1.368-2.285,2.554-4.923,3.181-7.833c2.472-0.435,4.241-1.88,4.583-3.833   c0.095-0.543-0.269-1.061-0.812-1.156l-3.337-0.59c-0.093-1.564-0.128-1.511-1.813-11.073c-0.46-2.615-3.343-3.995-5.665-2.736   c-2.342,1.27-4.71,2.234-7.098,2.924l1.104-6.258c0.222-1.255,1.608-1.939,2.739-1.324c7.093,3.848,14.466,5.189,21.917,3.988   C46.074,9.584,47.199,10.673,46.966,11.975z"></path><path d="M35.246,17.531c-0.453,0.317-0.563,0.94-0.246,1.393c0.317,0.453,0.941,0.563,1.392,0.246   c0.698-0.488,1.542-0.677,2.384-0.528c0.839,0.147,1.569,0.613,2.058,1.311c0.317,0.454,0.943,0.562,1.393,0.246   c0.453-0.316,0.563-0.94,0.246-1.393C40.825,16.451,37.592,15.889,35.246,17.531z"></path><path d="M15.002,25.341c0.316-0.453,0.207-1.076-0.245-1.393c-2.384-1.665-5.6-1.048-7.227,1.273   c-0.316,0.453-0.207,1.076,0.245,1.394c0.175,0.122,0.375,0.181,0.573,0.181c0.315,0,0.625-0.148,0.82-0.426   c0.488-0.698,1.22-1.164,2.059-1.312c0.841-0.148,1.686,0.039,2.382,0.528C14.061,25.903,14.684,25.793,15.002,25.341z"></path><path d="M24.097,20.757c-1.364,0.241-2.554,0.999-3.349,2.135c-0.463,0.662,0.014,1.573,0.818,1.573   c0.316,0,0.626-0.149,0.82-0.427c0.488-0.698,1.219-1.164,2.058-1.311c0.838-0.149,1.684,0.039,2.384,0.528   c0.45,0.315,1.076,0.207,1.392-0.246c0.316-0.452,0.207-1.075-0.246-1.393C26.841,20.822,25.464,20.516,24.097,20.757z"></path><path d="M25.624,29.362c-0.216-0.151-0.484-0.213-0.747-0.165l-11.844,2.088c-0.544,0.096-0.907,0.614-0.811,1.158   c1.176,6.688,14.996,4.279,13.813-2.435C25.989,29.746,25.842,29.514,25.624,29.362z M14.64,33.032l9.328-1.645   C22.894,34.427,16.699,35.512,14.64,33.032z"></path></g></svg>