<svg height='100px' width='100px'  fill="#333333" xmlns="http://www.w3.org/2000/svg" viewBox="0 0 100 100" x="0px" y="0px"><title>Wand</title><g data-name="Layer 5"><path d="M95,31.05H84.09a1.5,1.5,0,0,0,0,3H95a1.5,1.5,0,1,0,0-3Z"></path><path d="M40.43,34.05H51.34a1.5,1.5,0,1,0,0-3H40.43a1.5,1.5,0,1,0,0,3Z"></path><path d="M67.71,17.68a1.5,1.5,0,0,0,1.5-1.5V5.27a1.5,1.5,0,1,0-3,0V16.18A1.5,1.5,0,0,0,67.71,17.68Z"></path><path d="M67.71,47.43a1.5,1.5,0,0,0-1.5,1.5V59.84a1.5,1.5,0,0,0,3,0V48.93A1.5,1.5,0,0,0,67.71,47.43Z"></path><path d="M80.35,43.07a1.5,1.5,0,1,0-2.12,2.12L86,52.91a1.49,1.49,0,0,0,1.06.44,1.5,1.5,0,0,0,1.06-2.56Z"></path><path d="M55.08,22a1.49,1.49,0,0,0,1.06.44,1.5,1.5,0,0,0,1.06-2.56L49.48,12.2a1.5,1.5,0,0,0-2.12,2.12Z"></path><path d="M79.29,22.48A1.51,1.51,0,0,0,80.35,22l7.72-7.72a1.51,1.51,0,0,0,0-2.12,1.49,1.49,0,0,0-2.12,0l-7.72,7.72a1.49,1.49,0,0,0,0,2.12A1.51,1.51,0,0,0,79.29,22.48Z"></path><path d="M74.08,25.32a6.71,6.71,0,0,0-9.5,0L22,67.93,5.37,84.53a6.72,6.72,0,0,0,0,9.5l.33.33a6.72,6.72,0,0,0,9.51,0l59.2-59.2a6.74,6.74,0,0,0,0-9.51Zm-61,66.92a3.72,3.72,0,0,1-5.26,0l-.33-.33a3.72,3.72,0,0,1,0-5.26L23,71.11l5.6,5.6ZM72.29,33,30.74,74.59,25.14,69,66.7,27.44a3.72,3.72,0,0,1,5.26,0l.33.33A3.72,3.72,0,0,1,72.29,33Z"></path></g></svg>