<svg height='100px' width='100px'  fill="currentColor" xmlns="http://www.w3.org/2000/svg" xmlns:xlink="http://www.w3.org/1999/xlink" xmlns:sketch="http://www.bohemiancoding.com/sketch/ns" viewBox="0 0 100 100" version="1.1" x="0px" y="0px"><title>No Filter</title><desc>Created with Sketch by Roberto.</desc><g stroke="none" stroke-width="1" fill="none" fill-rule="evenodd" sketch:type="MSPage"><g sketch:type="MSLayerGroup" fill="#000000"><g sketch:type="MSShapeGroup"><g><path d="M56.8828429,79.0702402 C56.1377353,80.1063283 54.738315,79.840143 53.7572923,78.4755974 L0.968186145,5.06443554 C-0.012973962,3.69998539 -0.204453339,1.75397729 0.540585501,0.717984659 C1.28555566,-0.318007973 2.68490728,-0.0518227173 3.66606739,1.31272293 L56.4551049,74.7236938 C57.4363336,76.0880484 57.6278817,78.034152 56.8828429,79.0702402 Z"></path><path d="M4.07386145,13.4707521 C2.91601167,13.4707521 2.10048268,14.3058226 1.63063059,15.9711863 C1.16144972,17.7225411 1.35543151,19.2168778 2.21123353,20.4561071 L22.6202658,52.0531102 L22.6202658,78.9645462 C22.6202658,80.0747887 22.8827117,81.0407569 23.40559,81.8509855 L34.0061243,98.2542919 C34.5001402,99.0692983 35.1216875,99.4763231 35.8674098,99.4763231 C36.1976487,99.4763231 36.5439968,99.3674009 36.9030981,99.1533782 C37.9797306,98.4272296 38.5180468,97.1679362 38.5180468,95.3726303 L38.5180477,61.5865915 L4.07386145,13.4707521 L4.07386145,13.4707521 Z"></path><path d="M59.324564,13.3844011 L15.4901539,13.3844011 C14.3773043,13.3844011 39.9753081,47.5644745 39.9753081,47.5644745 L61.1193163,19.74707 C61.9418573,18.6175919 62.1237839,17.256649 61.6734831,15.661631 C61.2238274,14.1440578 60.4425747,13.3844011 59.324564,13.3844011 L59.324564,13.3844011 Z"></path></g></g></g></g></svg>