<svg height='100px' width='100px'  fill="#333333" xmlns:dc="http://purl.org/dc/elements/1.1/" xmlns:cc="http://creativecommons.org/ns#" xmlns:rdf="http://www.w3.org/1999/02/22-rdf-syntax-ns#" xmlns:svg="http://www.w3.org/2000/svg" xmlns="http://www.w3.org/2000/svg" xmlns:sodipodi="http://sodipodi.sourceforge.net/DTD/sodipodi-0.dtd" xmlns:inkscape="http://www.inkscape.org/namespaces/inkscape" version="1.1" x="0px" y="0px" viewBox="0 0 32 32"><g transform="translate(0,-1020.3622)"><g transform="translate(-1.5,-2.5)"><path style="color:#000000;font-style:normal;font-variant:normal;font-weight:normal;font-stretch:normal;font-size:medium;line-height:normal;font-family:sans-serif;text-indent:0;text-align:start;text-decoration:none;text-decoration-line:none;text-decoration-style:solid;text-decoration-color:#000000;letter-spacing:normal;word-spacing:normal;text-transform:none;direction:ltr;block-progression:tb;writing-mode:lr-tb;baseline-shift:baseline;text-anchor:start;white-space:normal;clip-rule:nonzero;display:inline;overflow:visible;visibility:visible;opacity:1;isolation:auto;mix-blend-mode:normal;color-interpolation:sRGB;color-interpolation-filters:linearRGB;solid-color:#000000;solid-opacity:1;fill:#333333;fill-opacity:1;fill-rule:nonzero;stroke:none;stroke-width:1;stroke-linecap:round;stroke-linejoin:round;stroke-miterlimit:4;stroke-dasharray:none;stroke-dashoffset:0;stroke-opacity:1;color-rendering:auto;image-rendering:auto;shape-rendering:auto;text-rendering:auto;enable-background:accumulate" d="m 23.116212,1022.8649 c -5.51611,0 -10.000001,4.4747 -10,9.9805 -1e-6,5.506 4.48389,9.9785 10,9.9785 5.51611,0 9.998047,-4.4726 9.998046,-9.9785 10e-7,-5.5059 -4.481936,-9.9805 -9.998046,-9.9805 z m -0.5,1.0234 0,8.7619 -3.353516,0 c -0.03158,-2.2718 -0.427383,-4.6528 -1.298828,-7.1661 1.331192,-0.9289 2.925939,-1.5011 4.652344,-1.5958 z m 1,0 c 1.72682,0.095 3.321263,0.6665 4.652343,1.5958 -0.871493,2.5134 -1.266836,4.8943 -1.298828,7.1661 l -3.353515,0 0,-8.7619 z m -6.498047,2.2697 c 0.756604,2.2837 1.121539,4.4399 1.152343,6.4922 l -4.144531,0 c 0.05553,-2.5818 1.198382,-4.8893 2.992188,-6.4922 z m 11.996093,0 c 1.793035,1.6029 2.934733,3.9106 2.990235,6.4922 l -4.144531,0 c 0.03119,-2.0524 0.39761,-4.2085 1.154296,-6.4922 z m -21.5703124,6.4531 c -3.1187249,0 -5.6581841,2.5355 -5.6582032,5.6504 1.91e-5,3.115 2.5394783,5.6504 5.6582032,5.6504 3.1187254,0 5.6581844,-2.5354 5.6582034,-5.6504 -1.9e-5,-3.1149 -2.539478,-5.6504 -5.6582034,-5.6504 z m 0,1 c 0.7688575,0 1.4829544,0.2001 2.1210938,0.5273 -0.1772841,0.4594 -0.3272141,0.9476 -0.4296876,1.4727 l -0.6914062,0 0,1 0.5488281,0 c -0.030263,0.3262 -0.048828,0.6597 -0.048828,1 l -0.5,0 0,1 0.5625,0 c 0.031974,0.3447 0.082962,0.675 0.1464844,1 l -0.7089844,0 0,1 0.9589844,0 c 0.1743673,0.5492 0.3962964,1.0508 0.6601559,1.498 -0.7457296,0.5061 -1.6464461,0.8028 -2.6191403,0.8028 -0.9383553,0 -1.8071939,-0.2802 -2.5371094,-0.7539 0.2760994,-0.4587 0.5047735,-0.9785 0.6855469,-1.5469 l 0.8515625,0 0,-1 -0.5996094,0 c 0.063679,-0.3249 0.1144056,-0.6555 0.1464844,-1 l 0.453125,0 0,-1 -0.390625,0 c 0,-0.3403 -0.018565,-0.6738 -0.048828,-1 l 0.4394531,0 0,-1 -0.5820312,0 c -0.1060673,-0.5435 -0.2612267,-1.0486 -0.4472657,-1.5215 0.6150672,-0.2981 1.297715,-0.4785 2.0292969,-0.4785 z m 6.6132814,0.039 4.109375,0 c -0.07546,2.0559 -0.481403,4.0098 -1.134765,5.8924 -1.659029,-1.4758 -2.766306,-3.5514 -2.97461,-5.8924 z m 5.101563,0 3.357422,0 0,8.1484 c -1.727987,-0.095 -3.324326,-0.6676 -4.65625,-1.5977 0.753703,-2.0773 1.219104,-4.2547 1.298828,-6.5507 z m 4.357422,0 3.355468,0 c 0.07929,2.2961 0.545155,4.4734 1.298828,6.5507 -1.331553,0.93 -2.926451,1.503 -4.654296,1.5977 l 0,-8.1484 z m 4.347656,0 4.109375,0 c -0.208233,2.3414 -1.31569,4.4166 -2.974609,5.8924 -0.653293,-1.8827 -1.059701,-3.8366 -1.134766,-5.8924 z m -23.3125005,0.9863 c 0.1106678,0.3063 0.2072252,0.6291 0.2832031,0.9746 l -0.390625,0 0,1 0.5566406,0 c 0.033646,0.3242 0.052734,0.6583 0.052734,1 l -0.609375,0 0,1 0.5449219,0 c -0.036671,0.3486 -0.094775,0.6783 -0.1660157,1 l -0.3789062,0 0,1 0.089844,0 c -0.1213821,0.3319 -0.2595612,0.6339 -0.4140626,0.9082 -0.8249149,-0.8385 -1.3339765,-1.986 -1.3339843,-3.2578 9e-6,-1.4756 0.6962929,-2.7739 1.765625,-3.625 z m 5.8691405,0.068 c 1.021026,0.8521 1.681632,2.1199 1.681641,3.5565 -8e-6,1.2348 -0.486767,2.3462 -1.269532,3.1777 -0.145817,-0.2695 -0.274011,-0.5646 -0.388671,-0.8867 l 0,-0.9414 -0.269532,0 c -0.07124,-0.3216 -0.129344,-0.6513 -0.166015,-1 l 0.435547,0 0,-1 -0.5,0 c 0,-0.3416 0.01909,-0.6758 0.05273,-1 l 0.447266,0 0,-1 -0.28125,0 c 0.07025,-0.3195 0.157735,-0.6199 0.257812,-0.9061 z m 5.953126,8.1738 c -2.135475,0 -3.942858,0.2977 -5.457032,0.7597 l 0,-0.01 -0.669922,0.2402 c -0.0034,0 -0.0063,0 -0.0098,0 -0.420225,0.1509 -0.8192776,0.3117 -1.1894528,0.4844 -0.3745902,0.1747 -0.7297601,0.3568 -1.0546875,0.5469 -0.032828,0.019 -0.065326,0.037 -0.097656,0.057 l -0.1484375,0.088 0,0.01 c -0.1939898,0.12 -0.3889917,0.2404 -0.5644532,0.3633 -0.9516628,0.6667 -1.6337487,1.3616 -2.0859374,1.957 -0.2260946,0.2976 -0.3956983,0.5708 -0.5136719,0.8106 -0.1179736,0.2398 -0.1992188,0.4208 -0.1992188,0.6816 0,0.2608 0.081245,0.4419 0.1992188,0.6817 0.1179738,0.2398 0.2875778,0.5108 0.5136719,0.8085 0.4521879,0.5953 1.1342751,1.2904 2.0859374,1.9571 0.1754613,0.1229 0.3704635,0.2433 0.5644532,0.3633 l 0,0.01 0.1738281,0.1035 c 0.017132,0.01 0.03351,0.021 0.050781,0.031 l 0.021484,0.012 c 0.0187,0.011 0.041678,0.02 0.060547,0.031 0.2984261,0.1724 0.6193832,0.3364 0.9589844,0.4961 0.037007,0.017 0.075799,0.034 0.1132812,0.051 0.3377756,0.1551 0.6974465,0.3022 1.0761721,0.4394 0.01571,0.01 0.02915,0.012 0.04492,0.018 l 0.669922,0.2383 0,-0.01 c 1.514175,0.4626 3.321557,0.7617 5.457032,0.7617 2.123119,0 3.92087,-0.2959 5.429687,-0.7539 l 0,0.012 0.666016,-0.2383 c 0.0083,0 0.01516,-0.01 0.02344,-0.01 0.410896,-0.1471 0.800898,-0.3046 1.164063,-0.4726 0.02186,-0.01 0.04471,-0.019 0.06641,-0.029 0.375234,-0.1761 0.731476,-0.3576 1.056641,-0.5489 0.01579,-0.01 0.0312,-0.018 0.04687,-0.027 l 0.201172,-0.1172 0,-0.012 c 0.183734,-0.1143 0.370145,-0.2288 0.53711,-0.3457 0.951663,-0.6667 1.633748,-1.3618 2.085937,-1.9571 0.226095,-0.2977 0.393745,-0.5687 0.511719,-0.8085 0.117974,-0.2398 0.199219,-0.4209 0.199219,-0.6818 0,-0.2608 -0.08124,-0.4418 -0.199219,-0.6815 -0.117974,-0.2398 -0.285624,-0.513 -0.511719,-0.8106 -0.452189,-0.5954 -1.134273,-1.2903 -2.085937,-1.9571 -0.166965,-0.1169 -0.353376,-0.2313 -0.53711,-0.3457 l 0,-0.012 -0.201172,-0.1171 c -0.01567,-0.01 -0.03109,-0.018 -0.04687,-0.027 -0.324098,-0.1904 -0.678898,-0.3733 -1.052735,-0.5488 -0.02737,-0.013 -0.05636,-0.024 -0.08398,-0.037 -0.35874,-0.1654 -0.743264,-0.3199 -1.148438,-0.4648 -0.0085,0 -0.01689,-0.01 -0.02539,-0.01 l -0.666016,-0.2363 0,0.01 c -1.508817,-0.4575 -3.306568,-0.7519 -5.429687,-0.7519 z m 0,1 c 2.175277,0 3.962686,0.3227 5.429687,0.8027 l 0,8.3711 c -1.467027,0.4805 -3.254342,0.8066 -5.429687,0.8066 -2.18899,0 -3.984449,-0.3288 -5.457032,-0.8144 l 0,-8.3535 c 1.472668,-0.4851 3.267811,-0.8125 5.457032,-0.8125 z m 6.429687,1.2265 c 0.43172,0.1806 0.864125,0.3603 1.224609,0.5606 l 0,6.4043 c -0.360467,0.2003 -0.792895,0.3797 -1.224609,0.5605 l 0,-7.5254 z m -12.886719,0.012 0,7.5038 c -0.4108766,-0.1732 -0.8237104,-0.3457 -1.169922,-0.5371 l 0,-6.4296 c 0.3462116,-0.1914 0.7590453,-0.3639 1.169922,-0.5371 z m -2.169922,1.1269 0,5.2481 c -0.8630741,-0.6059 -1.4711181,-1.2325 -1.8554688,-1.7383 -0.192796,-0.2538 -0.3296143,-0.4769 -0.4121094,-0.6447 -0.082495,-0.1676 -0.095703,-0.3049 -0.095703,-0.2401 0,0.065 0.013208,-0.072 0.095703,-0.2402 0.082495,-0.1677 0.2193136,-0.3928 0.4121094,-0.6466 0.3843481,-0.506 0.9924023,-1.1322 1.8554688,-1.7382 z m 17.28125,0.022 c 0.846608,0.5991 1.446449,1.2169 1.826172,1.7168 0.192796,0.2538 0.329614,0.4788 0.41211,0.6465 0.0825,0.1677 0.0957,0.305 0.0957,0.2402 0,-0.065 -0.01321,0.073 -0.0957,0.2402 -0.0825,0.1677 -0.219313,0.3908 -0.41211,0.6446 -0.379733,0.4999 -0.979531,1.1177 -1.826172,1.7168 l 0,-5.2051 z m -12.21875,1.8185 0,0.2851 -0.435546,0 0,1 0.435546,0 0,0.2832 1,0 0,-0.2832 1.042969,0 0,0.2832 1,0 0,-0.2832 1.042969,0 0,0.2832 1,0 0,-0.2832 1.041016,0 0,0.2832 1,0 0,-0.2832 0.4375,0 0,-1 -0.4375,0 0,-0.2851 -1,0 0,0.2851 -1.041016,0 0,-0.2851 -1,0 0,0.2851 -1.042969,0 0,-0.2851 -1,0 0,0.2851 -1.042969,0 0,-0.2851 -1,0 z"></path></g></g></svg>