<svg height='100px' width='100px'  fill="#333333" xmlns="http://www.w3.org/2000/svg" xmlns:xlink="http://www.w3.org/1999/xlink" version="1.1" x="0px" y="0px" viewBox="0 0 512 512" style="enable-background:new 0 0 512 512;" xml:space="preserve"><g><g><g><g><g><path d="M370,497H150c-3.866,0-7-3.134-7-7v-50c0-3.866,3.134-7,7-7h220c3.866,0,7,3.134,7,7v50       C377,493.866,373.866,497,370,497z M157,483h206v-36H157V483z"></path></g><g><path d="M310,397H210c-3.866,0-7-3.134-7-7v-84.471c-25.566-10.75-47.437-28.399-63.467-51.274       C122.175,229.485,113,200.351,113,170V30c0-3.866,3.134-7,7-7h280c3.866,0,7,3.134,7,7v140       c0,30.351-9.175,59.485-26.533,84.255c-16.029,22.875-37.901,40.524-63.467,51.274V390C317,393.866,313.866,397,310,397z        M217,383h86v-82.203c0-2.901,1.789-5.502,4.499-6.538C358.64,274.696,393,224.761,393,170V37H127v133       c0,54.761,34.36,104.696,85.501,124.259c2.709,1.036,4.499,3.637,4.499,6.538V383z"></path></g><g><path d="M350,447H170c-3.866,0-7-3.134-7-7v-50c0-3.866,3.134-7,7-7h180c3.866,0,7,3.134,7,7v50       C357,443.866,353.866,447,350,447z M177,433h166v-36H177V433z"></path></g><g><path d="M400,87H230c-3.866,0-7-3.134-7-7s3.134-7,7-7h170c3.866,0,7,3.134,7,7S403.866,87,400,87z"></path></g><g><path d="M120,177c-31.43,0-57-25.57-57-57V80c0-3.866,3.134-7,7-7h50c3.866,0,7,3.134,7,7v90C127,173.866,123.866,177,120,177z        M77,87v33c0,21.327,15.608,39.077,36,42.431V87H77z"></path></g><g><path d="M400,177c-3.866,0-7-3.134-7-7V80c0-3.866,3.134-7,7-7h50c3.866,0,7,3.134,7,7v40C457,151.43,431.43,177,400,177z        M407,87v75.431c20.393-3.354,36-21.104,36-42.431V87H407z"></path></g><g><path d="M260,277c-47.972,0-87-39.028-87-87s39.028-87,87-87c47.972,0,87,39.028,87,87S307.972,277,260,277z M260,117       c-40.252,0-73,32.748-73,73s32.748,73,73,73c40.252,0,73-32.748,73-73S300.252,117,260,117z"></path></g><g><path d="M291.653,240.567c-1.444,0-2.888-0.446-4.114-1.337L260,219.222l-27.539,20.008c-2.453,1.782-5.775,1.782-8.229,0       c-2.453-1.782-3.48-4.942-2.542-7.826l10.519-32.374l-27.539-20.008c-2.453-1.783-3.48-4.942-2.542-7.826       c0.937-2.884,3.625-4.837,6.657-4.837h34.04l10.519-32.374c0.937-2.884,3.625-4.837,6.657-4.837       c3.032,0,5.721,1.953,6.657,4.837l10.52,32.374h34.039c3.032,0,5.721,1.953,6.657,4.837c0.938,2.884-0.089,6.043-2.543,7.826       l-27.538,20.008l10.519,32.374c0.938,2.884-0.089,6.043-2.543,7.826C294.541,240.121,293.098,240.567,291.653,240.567z        M230.328,180.359l14.224,10.334c2.453,1.783,3.48,4.942,2.542,7.826l-5.433,16.721l14.224-10.334       c2.453-1.782,5.775-1.782,8.229,0l14.224,10.334l-5.433-16.721c-0.938-2.884,0.089-6.043,2.543-7.826l14.224-10.334h-17.581       c-3.032,0-5.721-1.953-6.657-4.837L260,158.801l-5.433,16.721c-0.937,2.884-3.625,4.837-6.657,4.837H230.328z"></path></g></g><g><path d="M490,497H30c-3.866,0-7-3.134-7-7s3.134-7,7-7h460c3.866,0,7,3.134,7,7S493.866,497,490,497z"></path></g></g></g></g></svg>