<svg height='100px' width='100px'  fill="#333333" xmlns="http://www.w3.org/2000/svg" data-name="Layer 1" viewBox="0 0 128 128" x="0px" y="0px"><title>Miscellaneous246_expandline</title><circle cx="34.00563" cy="19.99875" r="1.9995"></circle><circle cx="102.00563" cy="94.99852" r="2.00003"></circle><path d="M53.99708,97.0054a1.9991,1.9991,0,0,0-3.6739.4995c-1.3203,5.1929-2.2363,6.7739-3.3984,8.7759l-.0596.1005c-.373.6451-.7685,1.2061-1.1865,1.7984a13.31308,13.31308,0,0,0-2.3779,4.6772,8.62933,8.62933,0,0,0,5.2275,10.3492c4.3643,1.8979,9.9961.311,12.378-3.8921,1.8125-3.1978,1.1142-7.335-.1436-10.1387C60.06928,107.624,55.165,99.0474,53.99708,97.0054Zm3.4297,20.3369a5.73457,5.73457,0,0,1-5.002,2.6562c-3.3545,0-6.08978-2.7871-5.2441-6.1684a9.68808,9.68808,0,0,1,1.7666-3.3447c.42972-.6099.9179-1.3003,1.3798-2.0992a37.81608,37.81608,0,0,0,2.5176-5.3042c.3789.6734,1.7764,3.1446,2.1035,3.7046a42.6409,42.6409,0,0,1,2.1631,4.0225C57.99408,112.7788,58.43548,115.5625,57.42678,117.3423Z"></path><path d="M36.03808,89.7744c-.25-.4028-2.5869-4.2861-3.5215-5.8188a1.99923,1.99923,0,0,0-3.6367.5195,19.80055,19.80055,0,0,1-2.7051,6.5107c-.2861.4639-.59278.8746-.9209,1.3111a10.29845,10.29845,0,0,0-1.9912,3.6938,6.94618,6.94618,0,0,0,4.4434,8.3897,8.52035,8.52035,0,0,0,3.2343.6186,8.22513,8.22513,0,0,0,7.1045-3.7192c1.5684-2.5933.9815-5.9102-.08788-8.1485A34.78337,34.78337,0,0,0,36.03808,89.7744Zm-1.417,9.437a4.28612,4.28612,0,0,1-3.6807,1.7871,4.61429,4.61429,0,0,1-1.7236-.3213A3.02461,3.02461,0,0,1,27.127,97.0244a6.61394,6.61394,0,0,1,1.32318-2.3232c.3506-.4663.7471-.9942,1.17682-1.6895a20.56624,20.56624,0,0,0,1.72068-3.2524c.1718.2856,2.52532,4.1069,2.999,5.0971C34.96478,96.1499,35.31638,98.0645,34.62108,99.2114Z"></path><path d="M127.94338,107.27a2.00052,2.00052,0,0,0-.5586-1.1767C110.96678,89.3677,81.499,57.4302,81.373,57.3442A532.40392,532.40392,0,0,1,40.24608,6.45508a5.68255,5.68255,0,0,0-8.2432-1.19678L1.56839,29.3823a4.16341,4.16341,0,0,0-.8692,5.5625C23.04,68.0469,43.39938,86.1758,49.10638,90.9429a4.747,4.747,0,0,0,3.0508,1.0561,4.61277,4.61277,0,0,0,2.5459-.727,150.4562,150.4562,0,0,0,16.7578-13.3946,11.9707,11.9707,0,0,0,6.9912,5.9463c4.8985,1.7583,6.75792,4.8951,9.3292,9.2364q.4569.77625.9423,1.5839c6.6016,10.9302,18.4532,16.5992,18.959,16.837a2.8875,2.8875,0,0,1,1.6846,1.6982,6.11366,6.11366,0,0,1-.7256,4.1074,2.01987,2.01987,0,0,0,1.2705,2.9439,25.87868,25.87868,0,0,0,5.9404.7675,12.08485,12.08485,0,0,0,8.3047-2.7788C128.66988,114.2227,127.97558,107.5522,127.94338,107.27ZM34.48628,8.39355a1.71427,1.71427,0,0,1,2.4942.36963A534.23426,534.23426,0,0,0,81.22358,63.0645,285.041,285.041,0,0,1,59.499,82.7974c-6.67872-5.6988-26.42772-23.8496-48.21972-56.0108ZM52.51068,87.9258a.85191.85191,0,0,1-.8388-.0532c-5.6065-4.6817-25.6104-22.4986-47.6563-55.1651a.20406.20406,0,0,1,.0352-.1909l4.0879-3.2393c21.334,31.4317,40.7842,49.6622,48.124,56.0137C54.98048,86.2432,53.72068,87.1357,52.51068,87.9258Zm68.9776,27.3135c-1.8057,1.5893-4.6104,2.1074-8.36128,1.5468a8.49487,8.49487,0,0,0,.05948-4.7978,6.832,6.832,0,0,0-3.8017-4.127c-.1123-.0537-11.2744-5.414-17.2354-15.2871-.3213-.5278-.6279-1.0464-.9277-1.5527-2.7705-4.6777-5.1641-8.7173-11.418-10.9629a7.93511,7.93511,0,0,1-5.2236-5.0273c4.1347-3.8306,7.5537-7.209,9.3994-9.0606,9.0127,9.7246,27.7588,29.8633,40.01952,42.3823C124.01948,109.771,123.80568,113.2031,121.48828,115.2393Z"></path></svg>