<svg height='100px' width='100px'  fill="#333333" xmlns="http://www.w3.org/2000/svg" xmlns:xlink="http://www.w3.org/1999/xlink" version="1.1" x="0px" y="0px" viewBox="0 0 100 100" enable-background="new 0 0 100 100" xml:space="preserve"><g><g><path d="M46.781,90.717c-0.045,0-0.09-0.002-0.136-0.005C25.354,89.24,8.676,71.354,8.676,49.987    c0-22.51,18.313-40.824,40.824-40.824c22.511,0,40.824,18.313,40.824,40.824c0,21.292-15.973,38.773-37.154,40.66    c-1.055,0.094-2.012-0.693-2.107-1.764c-0.096-1.069,0.695-2.014,1.764-2.108c19.16-1.706,33.609-17.522,33.609-36.788    c0-20.366-16.569-36.936-36.936-36.936s-36.936,16.57-36.936,36.936c0,19.332,15.088,35.515,34.349,36.847    c1.071,0.073,1.879,1.002,1.806,2.072C48.647,89.932,47.793,90.717,46.781,90.717z"></path></g><g><g><path d="M46.777,81.079c-0.197,0-0.397-0.03-0.595-0.093c-0.218-0.07-0.433-0.146-0.646-0.232     c-1.135-0.451-2.162-1.114-3.045-1.965c-0.872-0.84-1.576-1.823-2.091-2.92c-0.537-1.137-0.81-2.389-0.81-3.718     c0-1.251,0.25-2.47,0.744-3.62c0.492-1.146,1.191-2.162,2.079-3.018c0.562-0.539,1.187-1.009,1.867-1.404v-0.217     c-0.462-0.302-1.289-0.738-2.028-1.055c-0.714-0.307-1.177-1.008-1.177-1.785v-2.971c0-1.502,0.15-2.879,0.446-4.096     c0.306-1.248,0.771-2.41,1.385-3.455c0.583-0.991,1.306-1.967,2.15-2.899c0.807-0.889,1.775-1.816,2.878-2.755l2.508-2.358     c0.818-0.725,1.485-1.448,2.026-2.19c0.379-0.522,0.564-1.159,0.564-1.942c0-1.146-0.297-1.971-0.938-2.595     c-0.645-0.627-1.568-0.933-2.825-0.933c-2.061,0-2.904,0.82-3.359,1.437c-0.873,1.184-1.337,2.491-1.42,3.995     c-0.029,0.532-0.276,1.028-0.682,1.374c-0.406,0.345-0.933,0.506-1.465,0.452l-12.428-1.328     c-0.514-0.055-0.985-0.312-1.309-0.716c-0.323-0.403-0.474-0.918-0.417-1.432c0.338-3.043,1.132-5.773,2.36-8.113     c1.242-2.37,2.875-4.366,4.852-5.935c1.949-1.549,4.187-2.726,6.649-3.497c4.675-1.466,10.144-1.508,15.076-0.178     c2.444,0.659,4.653,1.711,6.567,3.127c1.955,1.448,3.543,3.312,4.72,5.54c1.19,2.258,1.794,4.93,1.794,7.943     c0,1.913-0.244,3.639-0.724,5.129c-0.478,1.481-1.157,2.863-2.024,4.109c-0.844,1.214-1.869,2.367-3.049,3.424     c-1.105,0.992-2.375,2.039-3.773,3.106c-0.76,0.616-1.422,1.188-1.928,1.664c-0.41,0.388-0.729,0.778-0.95,1.161     c-0.214,0.371-0.365,0.762-0.452,1.164c-0.104,0.463-0.154,1.047-0.154,1.735v2.032c0,0.93-0.659,1.729-1.572,1.908     c-0.537,0.107-1.204,0.361-1.514,0.564v0.593c0.65,0.38,1.254,0.826,1.801,1.333c0.898,0.83,1.607,1.842,2.107,3.002     c0.492,1.15,0.742,2.367,0.742,3.62c0,2.614-0.932,4.856-2.77,6.662c-0.61,0.599-1.281,1.107-1.994,1.509     c-0.932,0.527-2.119,0.199-2.648-0.736c-0.528-0.936-0.198-2.12,0.736-2.648c0.418-0.235,0.814-0.537,1.182-0.898     c1.082-1.062,1.607-2.334,1.607-3.888c0-0.732-0.141-1.415-0.43-2.086c-0.285-0.667-0.67-1.218-1.175-1.685     c-0.538-0.498-1.167-0.902-1.87-1.205c-0.713-0.307-1.176-1.01-1.176-1.786v-2.106c0-1.783,1.413-2.961,3.086-3.611v-0.573     c0-0.97,0.081-1.833,0.242-2.566c0.172-0.79,0.469-1.556,0.883-2.272c0.409-0.711,0.964-1.4,1.646-2.045     c0.586-0.555,1.305-1.174,2.196-1.896c1.36-1.04,2.55-2.02,3.58-2.944c0.956-0.857,1.781-1.782,2.452-2.75     c0.648-0.931,1.158-1.968,1.518-3.083c0.355-1.103,0.535-2.428,0.535-3.937c0-2.375-0.451-4.437-1.344-6.128     c-0.901-1.708-2.111-3.13-3.594-4.229c-1.521-1.125-3.294-1.967-5.268-2.499c-4.217-1.137-8.93-1.11-12.9,0.134     c-2.006,0.628-3.82,1.581-5.394,2.833c-1.551,1.23-2.838,2.81-3.827,4.695c-0.742,1.415-1.293,3.025-1.644,4.806l8.547,0.913     c0.344-1.466,0.974-2.827,1.885-4.062c1.016-1.377,2.965-3.018,6.488-3.018c2.288,0,4.15,0.686,5.539,2.036     c1.401,1.368,2.112,3.177,2.112,5.38c0,1.61-0.44,3.032-1.309,4.229c-0.709,0.973-1.567,1.906-2.553,2.777l-2.536,2.383     c-1.048,0.894-1.894,1.703-2.588,2.467c-0.665,0.735-1.23,1.495-1.679,2.259c-0.421,0.717-0.745,1.526-0.959,2.408     c-0.222,0.912-0.335,1.98-0.335,3.172v1.727c2.787,1.384,3.205,2.449,3.205,3.396v2.106c0,0.785-0.471,1.493-1.196,1.795     c-0.709,0.296-1.335,0.703-1.862,1.21c-0.518,0.498-0.912,1.07-1.203,1.749c-0.289,0.673-0.428,1.354-0.428,2.086     c0,0.761,0.144,1.435,0.439,2.06c0.319,0.681,0.734,1.26,1.271,1.775c0.527,0.508,1.113,0.887,1.793,1.158     c0.134,0.053,0.261,0.098,0.39,0.14c1.022,0.329,1.585,1.424,1.256,2.446C48.362,80.554,47.599,81.079,46.777,81.079z"></path></g></g></g></svg>