<svg height='100px' width='100px'  fill="currentColor" xmlns="http://www.w3.org/2000/svg" xmlns:xlink="http://www.w3.org/1999/xlink" xml:space="preserve" version="1.1" style="shape-rendering:geometricPrecision;text-rendering:geometricPrecision;image-rendering:optimizeQuality;" viewBox="0 0 50000 50000" x="0px" y="0px" fill-rule="evenodd" clip-rule="evenodd"><defs><style type="text/css">
   
    .fil0 {fill:#000000;fill-rule:nonzero}
   
  </style></defs><g><path class="fil0" d="M11520.49 16600.79c887.54,-352.45 1860.51,-729.41 2832.36,-1105.91 895.84,-347.06 1790.72,-693.75 2577.05,-1004.45 131.31,-529.75 553.51,-996.38 1168.43,-1344.24 706.57,-399.71 1676.51,-646.96 2742.29,-646.96 324.63,0 640.33,22.97 942.44,66.17l4897.53 -1948.36c111.75,-556.68 543.02,-1047.44 1183.08,-1409.52 706.58,-399.72 1676.51,-646.96 2742.29,-646.96 1065.78,0 2035.72,247.25 2742.29,646.96 532.5,301.23 920.46,691.54 1100.18,1134.76l12067.38 8883.85c101.44,74.68 171.03,162.58 209.45,254.64 29.21,70.02 40.59,141.9 34.63,212.9l-2.41 10881.81c-1.38,175.38 -46.16,329.69 -128.77,458.2 -85.9,133.62 -209.56,235.94 -365.1,302.11l-29366.63 13248.92c-154.41,65.69 -343.31,78.82 -523.3,46.99 -176.54,-31.22 -352.13,-106.54 -484.24,-218.46l-1688.29 -1430.13c-1648.42,-1396.26 -3297.19,-2792.82 -4944.14,-4190.12 -977.82,-829.6 -1938.76,-1644.31 -2897.92,-2457.52 -1206.56,-1022.95 -2206.47,-1879.73 -3437.73,-2924.77 -49.92,-42.37 -31.75,-27.28 -38.36,-32.78 -225.38,-187.51 -468.72,-389.99 -458.58,-1036.51l-22.09 -11752.26c-0.65,-24.69 0.74,-49.23 4.17,-73.48 11.86,-83.94 46.33,-161.59 103.13,-228.52 53.81,-63.4 127.31,-115.93 219.73,-152.62 710.05,-281.86 1420.11,-563.86 2130.11,-845.9l2061.08 -818.98c153.56,-494.74 562.88,-930.28 1144.78,-1259.46 706.57,-399.71 1676.51,-646.96 2742.29,-646.96 243.29,0 481.56,12.92 712.87,37.56zm22364.95 2736.61l0.78 -2659.33 -0.61 -13.97 -0.02 -0.33 -0.04 -1.1c-0.26,-6.61 -0.46,-13.23 -0.63,-19.86l-0.03 -1.1 -0.03 -1.11 -0.07 -3.31 -0.03 -1.11c-0.21,-9.58 -0.3,-19.17 -0.3,-28.78 0,-675.32 463.12,-1274.97 1211.88,-1698.54 624.58,-353.33 1454.93,-587.53 2375.37,-637.12 539.61,-29.07 1089.99,5.29 1620.78,108.9l-4529.16 -3334.31 -4.18 2389.73 0.98 0c0,675.32 -463.12,1274.97 -1211.88,1698.54 -706.57,399.71 -1676.51,646.96 -2742.29,646.96 -1065.78,0 -2035.71,-247.24 -2742.29,-646.96 -748.76,-423.57 -1211.88,-1023.22 -1211.88,-1698.54l0.98 0 0.66 -2272.27 -4001.29 1591.81c343.33,103.59 656.85,235.63 930.77,390.59 663.27,375.21 1102.33,888.6 1193.96,1470.34l21.76 0 -4.82 2758.2 0.98 0c0,675.32 -463.12,1274.97 -1211.88,1698.54 -706.58,399.72 -1676.51,646.96 -2742.29,646.96 -1065.78,0 -2035.72,-247.25 -2742.29,-646.96 -748.76,-423.57 -1211.88,-1023.22 -1211.88,-1698.54l0.98 0 0.68 -2332.44c-752.94,296.55 -1553.87,606.84 -2355.58,917.43 -712.27,275.94 -1425.17,552.13 -2085.46,811 411.03,109.58 783.78,258.98 1102.84,439.47 663.27,375.21 1102.33,888.6 1193.96,1470.34l21.76 0 -4.82 2758.2 0.98 0c0,675.32 -463.12,1274.97 -1211.88,1698.54 -706.58,399.72 -1676.51,646.96 -2742.29,646.96 -1065.78,0 -2035.72,-247.25 -2742.29,-646.96 -748.76,-423.57 -1211.88,-1023.22 -1211.88,-1698.54l0.98 0 0.7 -2407.24 -1812.06 720.04c-709.15,281.7 -1418.35,563.36 -2127.55,844.88 7.79,9.33 18.2,19.62 31.32,30.75 1232.61,1046.19 2466.61,2092.43 3700.04,3138.19 978.11,829.29 1955.91,1658.32 2932.39,2486.78 1647.77,1397.99 3297.34,2795.23 4946.56,4192.18l1730.94 1409.26c85.94,72.8 223.78,108.95 357.98,113.17 100.25,3.16 198.48,-11.49 271.53,-41.97 2278.91,-950.93 4376.42,-1861.78 6656.25,-2812.46 2643.81,-1102.46 5287.26,-2204.77 7927.89,-3306.9 4208.92,-1756.69 8420.8,-3514.2 12630.68,-5270.87l1855.42 -765.27c226,-94.31 213.8,-192.71 6.02,-345.67l-4192.17 -3071.55 0.06 0.37 1.81 10.45c1.15,6.79 2.25,13.6 3.3,20.41l1.61 10.66c1.02,6.89 1.98,13.8 2.9,20.71l1.27 9.84c0.95,7.5 1.83,15.01 2.66,22.53l0.69 6.28c0.9,8.47 1.71,16.95 2.46,25.45l0.5 5.79c0.74,8.77 1.41,17.56 1.99,26.36l0.26 4.1c0.6,9.42 1.1,18.84 1.52,28.29l0.05 1.02 0.02 0.74c0.44,10.15 0.77,20.36 0.99,30.55l0 0.2 0.07 3.4 4.11 0 -4.82 2758.2 0.98 0c0,675.32 -463.12,1274.97 -1211.88,1698.54 -706.57,399.71 -1676.51,646.96 -2742.29,646.96 -1065.78,0 -2035.71,-247.24 -2742.29,-646.96 -748.76,-423.57 -1211.88,-1023.22 -1211.88,-1698.54l0.98 0zm498.5 -1576.87l-0.46 1576.87 0.98 0c0,482 366.1,930.11 957.98,1264.94 634.06,358.69 1516.23,580.56 2496.19,580.56 979.96,0 1862.13,-221.87 2496.19,-580.56 591.88,-334.83 957.98,-782.94 957.98,-1264.94l0.98 0 2.76 -1580.34 -7.43 7.88c-4.73,5 -9.5,9.99 -14.29,14.97l-10.9 11.25c-5.01,5.13 -10.04,10.25 -15.11,15.36l-7.01 7.05c-6.24,6.24 -12.54,12.46 -18.88,18.66l-7.47 7.27c-5.91,5.73 -11.86,11.45 -17.84,17.14l-7.35 6.97c-6.17,5.82 -12.38,11.63 -18.63,17.41l-7.43 6.85c-6.64,6.1 -13.33,12.18 -20.07,18.24l-7.1 6.36c-6.44,5.76 -12.92,11.49 -19.45,17.21l-7.07 6.17c-6.88,5.99 -13.81,11.95 -20.78,17.9l-6.5 5.53c-7.63,6.46 -15.31,12.9 -23.05,19.31l-5.26 4.34c-7.28,6.01 -14.61,12 -21.99,17.96l-6.68 5.39c-7.88,6.33 -15.8,12.63 -23.79,18.91l-4.31 3.38c-8.65,6.78 -17.35,13.52 -26.12,20.24l-3.25 2.49c-8.51,6.5 -17.08,12.96 -25.7,19.4l-3.5 2.62c-8.9,6.63 -17.87,13.23 -26.89,19.8l-4.66 3.39c-9.13,6.62 -18.31,13.22 -27.56,19.78l-3.08 2.17c-9.07,6.42 -18.2,12.8 -27.38,19.15l-3.39 2.35c-9.42,6.5 -18.91,12.96 -28.44,19.4l-4.36 2.94c-9.58,6.44 -19.22,12.86 -28.91,19.24l-1.08 0.71 -0.66 0.43c-10.09,6.62 -20.25,13.21 -30.46,19.77l-2.73 1.75c-10.18,6.51 -20.42,12.99 -30.72,19.43l-2.82 1.76c-10.18,6.35 -20.41,12.67 -30.71,18.96l-0.86 0.53 -0.56 0.35 -1.9 1.14c-10.07,6.13 -20.2,12.23 -30.39,18.3l-3.07 1.82c-10.38,6.16 -20.8,12.29 -31.3,18.39l-4.22 2.44c-10.78,6.25 -21.61,12.45 -32.51,18.62 -706.57,399.71 -1676.51,646.96 -2742.29,646.96 -1065.78,0 -2035.71,-247.24 -2742.29,-646.96 -10.91,-6.17 -21.74,-12.37 -32.52,-18.62l-4.46 -2.59c-10.66,-6.19 -21.26,-12.42 -31.8,-18.68l-1.28 -0.76c-11.17,-6.65 -22.28,-13.34 -33.32,-20.05l-0.01 -0.01c-11.09,-6.76 -22.1,-13.57 -33.06,-20.41l-0.9 -0.56c-10.52,-6.57 -20.98,-13.19 -31.36,-19.84l-3.37 -2.16c-10.33,-6.62 -20.61,-13.3 -30.8,-19.99l-0.03 -0.02c-10.55,-6.93 -21.02,-13.9 -31.43,-20.91l-1.64 -1.1c-21.1,-14.22 -41.9,-28.6 -62.42,-43.13l-0.04 -0.03c-10.15,-7.19 -20.24,-14.43 -30.24,-21.7l-1.36 -0.98c-20.23,-14.71 -40.17,-29.57 -59.79,-44.58l-0.05 -0.05c-9.91,-7.58 -19.75,-15.21 -29.51,-22.87l-0.07 -0.06c-9.46,-7.42 -18.84,-14.87 -28.15,-22.37l-1.93 -1.56c-9.24,-7.45 -18.42,-14.93 -27.51,-22.46l-0.06 -0.06c-9.14,-7.57 -18.22,-15.17 -27.22,-22.8l-1.63 -1.39c-8.86,-7.53 -17.64,-15.09 -26.36,-22.69l-1.18 -1.04c-8.9,-7.77 -17.71,-15.58 -26.46,-23.4l-0.07 -0.07c-8.67,-7.78 -17.26,-15.58 -25.78,-23.42l-1.52 -1.4c-8.53,-7.87 -16.99,-15.77 -25.36,-23.71l-0.39 -0.36c-8.53,-8.08 -17,-16.21 -25.37,-24.37l-0.08 -0.08c-8.47,-8.25 -16.85,-16.54 -25.16,-24.87 -7.98,-8 -15.88,-16.04 -23.7,-24.1l-2.21 -2.28c-7.52,-7.77 -14.97,-15.58 -22.35,-23.41l-0.45 -0.47zm5950.88 -2418.07c-634.06,-358.69 -1516.23,-580.56 -2496.19,-580.56 -979.96,0 -1862.13,221.87 -2496.19,580.56 -591.88,334.83 -957.98,782.94 -957.98,1264.94 0,482 366.1,930.11 957.98,1264.94 634.06,358.69 1516.23,580.56 2496.19,580.56 979.96,0 1862.13,-221.87 2496.19,-580.56 591.88,-334.83 957.98,-782.94 957.98,-1264.94 0,-482 -366.1,-930.11 -957.98,-1264.94zm-13183.61 -3283.4l-0.4 1377 0.98 0c0,482 366.1,930.11 957.98,1264.94 634.06,358.69 1516.23,580.56 2496.19,580.56 979.96,0 1862.13,-221.87 2496.19,-580.56 591.88,-334.83 957.98,-782.94 957.98,-1264.94l0.98 0 2.41 -1380c-191.53,204.26 -433.1,388.92 -715.27,548.54 -706.57,399.71 -1676.51,646.96 -2742.29,646.96 -1065.78,0 -2035.71,-247.24 -2742.29,-646.96 -280.79,-158.84 -521.37,-342.47 -712.46,-545.54zm5950.94 -2417.94c-634.06,-358.69 -1516.23,-580.56 -2496.19,-580.56 -979.96,0 -1862.13,221.87 -2496.19,580.56 -591.88,334.83 -957.98,782.94 -957.98,1264.94 0,482 366.1,930.11 957.98,1264.94 634.06,358.69 1516.23,580.56 2496.19,580.56 979.96,0 1862.13,-221.87 2496.19,-580.56 591.88,-334.83 957.98,-782.94 957.98,-1264.94 0,-482 -366.1,-930.11 -957.98,-1264.94zm-8982.05 13634.95l0.78 -2659.33 -0.61 -13.97 -0.02 -0.33 -0.04 -1.1c-0.26,-6.61 -0.46,-13.23 -0.63,-19.86l-0.03 -1.1 -0.03 -1.11 -0.07 -3.31 -0.03 -1.11c-0.21,-9.58 -0.3,-19.17 -0.3,-28.78 0,-675.32 463.12,-1274.97 1211.88,-1698.54 706.58,-399.72 1676.51,-646.96 2742.29,-646.96 1342.68,0 3918.83,595.53 3953.86,2317.12l0.01 0.18 4.14 0 -4.82 2758.2 0.98 0c0,675.32 -463.12,1274.97 -1211.88,1698.54 -706.57,399.71 -1676.51,646.96 -2742.29,646.96 -1065.78,0 -2035.71,-247.24 -2742.29,-646.96 -748.76,-423.57 -1211.88,-1023.22 -1211.88,-1698.54l0.98 0zm498.5 -1576.87l-0.46 1576.87 0.98 0c0,482 366.1,930.11 957.98,1264.94 634.06,358.69 1516.23,580.56 2496.19,580.56 979.96,0 1862.13,-221.87 2496.19,-580.56 591.88,-334.83 957.98,-782.94 957.98,-1264.94l0.98 0 2.76 -1580.34 -7.43 7.88c-848.53,896.97 -2359.56,1187.96 -3450.48,1187.96 -1138.8,0 -2594.71,-305.62 -3429.68,-1166.21l-2.21 -2.28c-7.52,-7.77 -14.97,-15.58 -22.35,-23.41l-0.45 -0.47zm5950.88 -2418.07c-634.06,-358.69 -1516.23,-580.56 -2496.19,-580.56 -979.96,0 -1862.13,221.87 -2496.19,580.56 -591.88,334.83 -957.98,782.94 -957.98,1264.94 0,482 366.1,930.11 957.98,1264.94 634.06,358.69 1516.23,580.56 2496.19,580.56 979.96,0 1862.13,-221.87 2496.19,-580.56 591.88,-334.83 957.98,-782.94 957.98,-1264.94 0,-482 -366.1,-930.11 -957.98,-1264.94zm-6271.3 -3286.36c-191.54,204.25 -433.11,388.88 -715.27,548.5 -706.58,399.72 -1676.51,646.96 -2742.29,646.96 -1065.78,0 -2035.72,-247.25 -2742.29,-646.96 -280.8,-158.85 -521.37,-342.48 -712.46,-545.56l-0.4 1377.02 0.98 0c0,482 366.1,930.11 957.98,1264.94 634.06,358.69 1516.23,580.56 2496.19,580.56 979.96,0 1862.13,-221.87 2496.19,-580.56 591.88,-334.83 957.98,-782.94 957.98,-1264.94l0.98 0 2.41 -1379.96zm-961.37 -2414.98c-634.06,-358.69 -1516.23,-580.56 -2496.19,-580.56 -979.96,0 -1862.13,221.87 -2496.19,580.56 -591.88,334.83 -957.98,782.94 -957.98,1264.94 0,482 366.1,930.11 957.98,1264.94 634.06,358.69 1516.23,580.56 2496.19,580.56 979.96,0 1862.13,-221.87 2496.19,-580.56 591.88,-334.83 957.98,-782.94 957.98,-1264.94 0,-482 -366.1,-930.11 -957.98,-1264.94zm-9249.71 13760.28l0.78 -2659.33 -0.61 -13.97 -0.02 -0.33 -0.04 -1.1c-0.26,-6.61 -0.46,-13.23 -0.63,-19.86l-0.03 -1.1 -0.03 -1.11 -0.07 -3.31 -0.03 -1.11c-0.21,-9.58 -0.3,-19.17 -0.3,-28.78 0,-675.32 463.12,-1274.97 1211.88,-1698.54 706.57,-399.71 1676.51,-646.96 2742.29,-646.96 1317.27,0 3918.61,584.12 3953.86,2317.12l0.01 0.18 4.14 0 -4.82 2758.2 0.98 0c0,675.32 -463.12,1274.97 -1211.88,1698.54 -706.58,399.72 -1676.51,646.96 -2742.29,646.96 -1065.78,0 -2035.72,-247.25 -2742.29,-646.96 -748.76,-423.57 -1211.88,-1023.22 -1211.88,-1698.54l0.98 0zm498.5 -1576.87l-0.46 1576.87 0.98 0c0,482 366.1,930.11 957.98,1264.94 634.06,358.69 1516.23,580.56 2496.19,580.56 979.96,0 1862.13,-221.87 2496.19,-580.56 591.88,-334.83 957.98,-782.94 957.98,-1264.94l0.98 0 2.76 -1580.34 -7.43 7.88c-833.05,880.61 -2307.65,1187.96 -3450.48,1187.96 -1135.12,0 -2616.05,-302.6 -3454.24,-1191.9l-0.45 -0.47zm5950.88 -2418.07c-634.06,-358.69 -1516.23,-580.56 -2496.19,-580.56 -979.96,0 -1862.13,221.87 -2496.19,580.56 -591.88,334.83 -957.98,782.94 -957.98,1264.94 0,482 366.1,930.11 957.98,1264.94 634.06,358.69 1516.23,580.56 2496.19,580.56 979.96,0 1862.13,-221.87 2496.19,-580.56 591.88,-334.83 957.98,-782.94 957.98,-1264.94 0,-482 -366.1,-930.11 -957.98,-1264.94zm-6271.3 -3286.36c-191.54,204.25 -433.11,388.88 -715.27,548.5 -706.58,399.72 -1676.51,646.96 -2742.29,646.96 -1065.78,0 -2035.72,-247.25 -2742.29,-646.96 -280.8,-158.85 -521.38,-342.48 -712.46,-545.57l-0.4 1377.03 0.98 0c0,482 366.1,930.11 957.98,1264.94 634.06,358.69 1516.23,580.56 2496.19,580.56 979.96,0 1862.13,-221.87 2496.19,-580.56 591.88,-334.83 957.98,-782.94 957.98,-1264.94l0.98 0 2.41 -1379.96zm-961.37 -2414.98c-634.06,-358.69 -1516.23,-580.56 -2496.19,-580.56 -979.96,0 -1862.13,221.87 -2496.19,580.56 -591.88,334.83 -957.98,782.94 -957.98,1264.94 0,482 366.1,930.11 957.98,1264.94 634.06,358.69 1516.23,580.56 2496.19,580.56 979.96,0 1862.13,-221.87 2496.19,-580.56 591.88,-334.83 957.98,-782.94 957.98,-1264.94 0,-482 -366.1,-930.11 -957.98,-1264.94zm3026.08 26458.44l43.53 -11631.1 -1.06 -0.18c-508.4,-89.89 -1720.16,-1265.76 -2168.79,-1645.78 -1649.22,-1396.95 -3298.79,-2794.19 -4946.56,-4192.18 -976.48,-828.46 -1954.28,-1657.49 -2932.39,-2486.78 -1144.78,-970.6 -2290.04,-1941.61 -3434.24,-2912.61l32.08 11115.63c-6.41,408.48 141.72,531.74 278.9,645.87 33.72,28.04 18.91,14.92 42.26,34.74 1231.26,1045.04 2231.17,1901.82 3437.73,2924.77 959.16,813.21 1920.1,1627.92 2897.92,2457.52 1646.95,1397.3 3295.72,2793.86 4944.14,4190.12l1688.29 1430.13c32.99,27.95 73.49,51.42 118.19,69.85zm541.59 -11637.06l-43.44 11606.79 29240.25 -13195.15c61.95,-26.35 109.55,-64.53 140.5,-112.67 32.43,-50.45 50.04,-115.2 50.65,-192.56l-1.44 -10396.25 -1965.5 820.15c-4209.88,1756.67 -8421.76,3514.18 -12630.68,5270.87 -2640.63,1102.13 -5284.08,2204.44 -7927.89,3306.9 -619.95,258.52 -6544.59,2857.9 -6862.45,2891.92z"></path></g></svg>